<?xml version="1.0" encoding="UTF-8" standalone="no"?>
<svg
   width="33.69437"
   height="31.66445"
   viewBox="0 0 33.69437 31.66445"
   fill="none"
   version="1.1"
   id="svg376"
   sodipodi:docname="ajalugu.svg"
   inkscape:version="1.2.2 (b0a8486541, 2022-12-01)"
   xmlns:inkscape="http://www.inkscape.org/namespaces/inkscape"
   xmlns:sodipodi="http://sodipodi.sourceforge.net/DTD/sodipodi-0.dtd"
   xmlns="http://www.w3.org/2000/svg"
   xmlns:svg="http://www.w3.org/2000/svg">
  <defs
     id="defs380" />
  <sodipodi:namedview
     id="namedview378"
     pagecolor="#ffffff"
     bordercolor="#000000"
     borderopacity="0.25"
     inkscape:showpageshadow="2"
     inkscape:pageopacity="0.0"
     inkscape:pagecheckerboard="0"
     inkscape:deskcolor="#d1d1d1"
     showgrid="false"
     inkscape:zoom="17.458333"
     inkscape:cx="8.3054893"
     inkscape:cy="15.809069"
     inkscape:window-width="1920"
     inkscape:window-height="1008"
     inkscape:window-x="0"
     inkscape:window-y="0"
     inkscape:window-maximized="1"
     inkscape:current-layer="svg376" />
  <g
     id="g385"
     transform="translate(-6.1456314,-8.1737101)">
    <path
       d="m 39.84,25.07 c -0.08,0.58 -0.15,1.17 -0.25,1.75 -0.59,3.32 -2.11,6.15 -4.51,8.51 -2.66,2.6 -5.85,4.13 -9.55,4.44 C 20.06,40.23 15.48,38.36 11.88,34.21 10.4,32.5 9.38001,30.52 8.74001,28.34 c -0.12,-0.42 -0.06,-0.78 0.26,-1.08 0.29,-0.27 0.63,-0.34 0.99999,-0.2 0.36,0.13 0.54,0.41 0.64,0.77 0.67,2.31 1.84,4.33 3.56,6.01 2.44,2.39 5.36,3.76 8.78,4 6.96,0.5 13.15,-4.18 14.6,-11.02 1.56,-7.36 -3.2,-14.7 -10.6,-16.34 -7.41,-1.65001 -14.83,3.04 -16.52,10.45 -0.02,0.1 -0.03,0.21 -0.05,0.34 0.2,-0.07 0.35,-0.16 0.52,-0.19 0.4,-0.08 0.81,0.11 1.01,0.46 0.21,0.35 0.2,0.83 -0.09,1.13 -0.69,0.72 -1.39,1.43 -2.11999,2.11 -0.35,0.33 -0.91,0.31 -1.26,-0.02 -0.7,-0.68 -1.39,-1.37 -2.07,-2.07 -0.36,-0.38 -0.33,-0.97 0.04,-1.34 0.36,-0.36 0.94,-0.39 1.34,-0.05 0.16,0.14 0.31,0.29 0.45,0.43 0.25,-0.95 0.43,-1.9 0.75,-2.8 C 10.97,13.47 14.78,9.92999 20.44,8.59999 27.73,6.88999 34.98,10.44 38.28,17.18 c 0.85,1.73 1.34,3.56 1.49,5.48 0,0.11 0.04,0.21 0.06,0.32 v 2.1 z"
       fill="#000000"
       id="path370" />
    <path
       d="m 33.91,24.01 c 0.01,5.44 -4.41,9.88 -9.88,9.92 -5.43,0.04 -9.91,-4.43 -9.93,-9.9 -0.02,-5.45 4.45,-9.93 9.91,-9.92 5.45,0 9.89,4.44 9.9,9.9 z m -9.92,-7.93 c -4.37,0.01 -7.92,3.56 -7.92,7.93 0,4.38 3.59,7.97 7.95,7.94 4.38,-0.03 7.93,-3.6 7.91,-7.95 -0.01,-4.37 -3.59,-7.93 -7.94,-7.92 z"
       fill="#000000"
       id="path372" />
    <path
       d="m 23.01,23.03 c 0,-0.76 0,-1.47 0,-2.18 0,-0.53 0.38,-0.94 0.88,-0.98 0.51,-0.05 0.94,0.25 1.06,0.74 0.03,0.1 0.03,0.22 0.03,0.33 0,1 0,2 0,2.99 0,0.68 -0.4,1.08 -1.08,1.08 -1.59,0 -3.18,0 -4.77,0 -0.64,0 -1.07,-0.41 -1.06,-1 0,-0.57 0.44,-0.97 1.06,-0.97 1.16,0 2.32,0 3.49,0 0.12,0 0.24,0 0.4,0 z"
       fill="#000000"
       id="path374" />
  </g>
</svg>
