<svg width="48" height="48" viewBox="0 0 48 48" fill="none" xmlns="http://www.w3.org/2000/svg">
<path d="M8.16 12.2C8.16 11.93 8.16 11.66 8.16 11.4C8.17 11.38 8.19 11.37 8.2 11.35C8.6 9.85997 9.5 9.16997 11.04 9.16997C18.84 9.16997 26.64 9.16997 34.45 9.16997C35.4 9.16997 36.35 9.15997 37.29 9.16997C38.47 9.18997 39.5 10.03 39.77 11.17C40.04 12.33 39.51 13.54 38.46 14.07C38.2 14.2 38.15 14.35 38.15 14.62C38.15 20.53 38.15 26.43 38.15 32.34C38.15 32.63 38.14 32.92 38.07 33.2C37.8 34.38 36.8 35.13 35.53 35.13C32.4 35.13 29.26 35.13 26.13 35.13H25.73C25.81 35.27 25.86 35.35 25.92 35.44C26.76 36.74 27.61 38.03 28.44 39.33C28.8 39.89 28.66 40.46 28.11 40.75C28.06 40.78 28.01 40.81 27.96 40.84H27.47C27.23 40.61 26.95 40.41 26.77 40.14C26.2 39.32 25.67 38.47 25.13 37.64C25.08 37.57 25.03 37.5 24.94 37.38C24.94 38.24 24.94 39.04 24.94 39.83C24.94 40.4 24.54 40.81 24.01 40.81C23.48 40.81 23.09 40.4 23.08 39.83C23.08 39.12 23.08 38.41 23.08 37.7C23.08 37.62 23.07 37.53 23.06 37.38C22.44 38.33 21.86 39.21 21.29 40.1C21.09 40.41 20.88 40.68 20.55 40.84H20.06C19.29 40.38 19.19 39.94 19.68 39.17C20.49 37.93 21.3 36.68 22.1 35.44C22.16 35.35 22.21 35.26 22.29 35.13H21.86C18.77 35.13 15.67 35.13 12.58 35.13C12.31 35.13 12.04 35.11 11.78 35.05C10.6 34.76 9.86 33.77 9.86 32.46C9.86 26.54 9.86 20.62 9.86 14.71C9.86 14.63 9.86 14.54 9.86 14.46C9.88 14.29 9.8 14.21 9.65 14.13C8.89 13.75 8.4 13.14 8.22 12.3C8.22 12.26 8.18 12.23 8.17 12.19L8.16 12.2ZM11.71 14.42C11.71 14.56 11.71 14.68 11.71 14.79C11.71 20.66 11.71 26.52 11.71 32.39C11.71 33.07 11.93 33.29 12.59 33.29C20.2 33.29 27.81 33.29 35.41 33.29C36.08 33.29 36.29 33.07 36.29 32.4C36.29 26.52 36.29 20.65 36.29 14.77V14.43H11.71V14.42ZM24 11.02C19.69 11.02 15.38 11.02 11.07 11.02C10.97 11.02 10.86 11.02 10.76 11.02C10.35 11.04 10.03 11.35 10.02 11.75C10 12.15 10.28 12.48 10.7 12.53C10.8 12.54 10.91 12.54 11.01 12.54C19.67 12.54 28.33 12.54 36.99 12.54C37.11 12.54 37.24 12.54 37.36 12.52C37.74 12.45 38 12.13 37.98 11.75C37.96 11.38 37.68 11.07 37.3 11.03C37.19 11.02 37.07 11.03 36.96 11.03C32.64 11.03 28.32 11.03 24 11.03V11.02Z" fill="currentColor"/>
<path d="M33.42 24C33.42 25.73 33.42 27.46 33.42 29.19C33.42 29.99 33.05 30.37 32.25 30.37C31.21 30.37 30.17 30.37 29.13 30.37C28.36 30.37 27.97 29.98 27.97 29.21C27.97 25.74 27.97 22.26 27.97 18.79C27.97 18.02 28.35 17.64 29.13 17.64C30.19 17.64 31.25 17.64 32.31 17.64C33.03 17.64 33.41 18.02 33.42 18.75C33.42 20.5 33.42 22.25 33.42 24.01V24ZM29.85 19.5V28.48H31.55V19.5H29.85Z" fill="currentColor"/>
<path d="M26.73 25.73C26.73 26.91 26.73 28.08 26.73 29.26C26.73 29.98 26.34 30.37 25.62 30.38C24.55 30.38 23.48 30.38 22.4 30.38C21.67 30.38 21.27 29.98 21.27 29.25C21.27 26.91 21.27 24.57 21.27 22.23C21.27 21.48 21.66 21.09 22.41 21.09C23.47 21.09 24.53 21.09 25.6 21.09C26.34 21.09 26.72 21.47 26.72 22.22C26.72 23.4 26.72 24.57 26.72 25.75L26.73 25.73ZM24.85 28.5V22.96H23.15V28.5H24.85Z" fill="currentColor"/>
<path d="M20.05 27.57C20.05 28.16 20.05 28.74 20.05 29.33C20.05 29.93 19.65 30.36 19.05 30.36C17.91 30.38 16.76 30.37 15.62 30.36C15 30.36 14.6 29.93 14.6 29.31C14.6 28.14 14.6 26.96 14.6 25.79C14.6 25.18 15.02 24.76 15.63 24.76C16.76 24.76 17.9 24.76 19.03 24.76C19.63 24.76 20.04 25.18 20.04 25.77C20.04 26.37 20.04 26.97 20.04 27.56L20.05 27.57ZM18.18 26.63H16.47V28.49H18.18V26.63Z" fill="currentColor"/>
</svg>