<?xml version="1.0" encoding="UTF-8" standalone="no"?>
<svg
   width="31.679752"
   height="31.674475"
   viewBox="0 0 31.679752 31.674475"
   fill="none"
   version="1.1"
   id="svg304"
   sodipodi:docname="arikool.svg"
   inkscape:version="1.2.2 (b0a8486541, 2022-12-01)"
   xmlns:inkscape="http://www.inkscape.org/namespaces/inkscape"
   xmlns:sodipodi="http://sodipodi.sourceforge.net/DTD/sodipodi-0.dtd"
   xmlns="http://www.w3.org/2000/svg"
   xmlns:svg="http://www.w3.org/2000/svg">
  <defs
     id="defs308" />
  <sodipodi:namedview
     id="namedview306"
     pagecolor="#ffffff"
     bordercolor="#000000"
     borderopacity="0.25"
     inkscape:showpageshadow="2"
     inkscape:pageopacity="0.0"
     inkscape:pagecheckerboard="0"
     inkscape:deskcolor="#d1d1d1"
     showgrid="false"
     inkscape:zoom="17.458333"
     inkscape:cx="7.3317422"
     inkscape:cy="15.809069"
     inkscape:window-width="1920"
     inkscape:window-height="1008"
     inkscape:window-x="0"
     inkscape:window-y="0"
     inkscape:window-maximized="1"
     inkscape:current-layer="svg304" />
  <g
     id="g314"
     transform="translate(-8.16,-9.1655256)">
    <path
       d="m 8.16,12.2 c 0,-0.27 0,-0.54 0,-0.8 0.01,-0.02 0.03,-0.03 0.04,-0.05 0.4,-1.49003 1.3,-2.18003 2.84,-2.18003 7.8,0 15.6,0 23.41,0 0.95,0 1.9,-0.01 2.84,0 1.18,0.02 2.21,0.86003 2.48,2.00003 0.27,1.16 -0.26,2.37 -1.31,2.9 -0.26,0.13 -0.31,0.28 -0.31,0.55 0,5.91 0,11.81 0,17.72 0,0.29 -0.01,0.58 -0.08,0.86 -0.27,1.18 -1.27,1.93 -2.54,1.93 -3.13,0 -6.27,0 -9.4,0 h -0.4 c 0.08,0.14 0.13,0.22 0.19,0.31 0.84,1.3 1.69,2.59 2.52,3.89 0.36,0.56 0.22,1.13 -0.33,1.42 -0.05,0.03 -0.1,0.06 -0.15,0.09 h -0.49 c -0.24,-0.23 -0.52,-0.43 -0.7,-0.7 -0.57,-0.82 -1.1,-1.67 -1.64,-2.5 -0.05,-0.07 -0.1,-0.14 -0.19,-0.26 0,0.86 0,1.66 0,2.45 0,0.57 -0.4,0.98 -0.93,0.98 -0.53,0 -0.92,-0.41 -0.93,-0.98 0,-0.71 0,-1.42 0,-2.13 0,-0.08 -0.01,-0.17 -0.02,-0.32 -0.62,0.95 -1.2,1.83 -1.77,2.72 -0.2,0.31 -0.41,0.58 -0.74,0.74 h -0.49 c -0.77,-0.46 -0.87,-0.9 -0.38,-1.67 0.81,-1.24 1.62,-2.49 2.42,-3.73 0.06,-0.09 0.11,-0.18 0.19,-0.31 h -0.43 c -3.09,0 -6.19,0 -9.28,0 -0.27,0 -0.54,-0.02 -0.8,-0.08 -1.18,-0.29 -1.92,-1.28 -1.92,-2.59 0,-5.92 0,-11.84 0,-17.75 0,-0.08 0,-0.17 0,-0.25 C 9.88,14.29 9.8,14.21 9.65,14.13 8.89,13.75 8.4,13.14 8.22,12.3 8.22,12.26 8.18,12.23 8.17,12.19 Z m 3.55,2.22 c 0,0.14 0,0.26 0,0.37 0,5.87 0,11.73 0,17.6 0,0.68 0.22,0.9 0.88,0.9 7.61,0 15.22,0 22.82,0 0.67,0 0.88,-0.22 0.88,-0.89 0,-5.88 0,-11.75 0,-17.63 V 14.43 H 11.71 Z M 24,11.02 c -4.31,0 -8.62,0 -12.93,0 -0.1,0 -0.21,0 -0.31,0 -0.41,0.02 -0.73,0.33 -0.74,0.73 -0.02,0.4 0.26,0.73 0.68,0.78 0.1,0.01 0.21,0.01 0.31,0.01 8.66,0 17.32,0 25.98,0 0.12,0 0.25,0 0.37,-0.02 0.38,-0.07 0.64,-0.39 0.62,-0.77 -0.02,-0.37 -0.3,-0.68 -0.68,-0.72 -0.11,-0.01 -0.23,0 -0.34,0 -4.32,0 -8.64,0 -12.96,0 z"
       fill="currentColor"
       id="path296" />
    <path
       d="m 33.42,24 c 0,1.73 0,3.46 0,5.19 0,0.8 -0.37,1.18 -1.17,1.18 -1.04,0 -2.08,0 -3.12,0 -0.77,0 -1.16,-0.39 -1.16,-1.16 0,-3.47 0,-6.95 0,-10.42 0,-0.77 0.38,-1.15 1.16,-1.15 1.06,0 2.12,0 3.18,0 0.72,0 1.1,0.38 1.11,1.11 0,1.75 0,3.5 0,5.26 z m -3.57,-4.5 v 8.98 h 1.7 V 19.5 Z"
       fill="currentColor"
       id="path298" />
    <path
       d="m 26.73,25.73 c 0,1.18 0,2.35 0,3.53 0,0.72 -0.39,1.11 -1.11,1.12 -1.07,0 -2.14,0 -3.22,0 -0.73,0 -1.13,-0.4 -1.13,-1.13 0,-2.34 0,-4.68 0,-7.02 0,-0.75 0.39,-1.14 1.14,-1.14 1.06,0 2.12,0 3.19,0 0.74,0 1.12,0.38 1.12,1.13 0,1.18 0,2.35 0,3.53 z m -1.88,2.77 v -5.54 h -1.7 v 5.54 z"
       fill="currentColor"
       id="path300" />
    <path
       d="m 20.05,27.57 c 0,0.59 0,1.17 0,1.76 0,0.6 -0.4,1.03 -1,1.03 -1.14,0.02 -2.29,0.01 -3.43,0 -0.62,0 -1.02,-0.43 -1.02,-1.05 0,-1.17 0,-2.35 0,-3.52 0,-0.61 0.42,-1.03 1.03,-1.03 1.13,0 2.27,0 3.4,0 0.6,0 1.01,0.42 1.01,1.01 0,0.6 0,1.2 0,1.79 z m -1.87,-0.94 h -1.71 v 1.86 h 1.71 z"
       fill="currentColor"
       id="path302" />
  </g>
</svg>
