<?xml version="1.0" encoding="UTF-8" standalone="no"?>
<svg

   viewBox="0 0 52.000001 52"
   fill="none"
   version="1.1"
   id="svg442"
   sodipodi:docname="ehituskool-circle.svg"
   inkscape:version="1.2.2 (b0a8486541, 2022-12-01)"
   xml:space="preserve"
   xmlns:inkscape="http://www.inkscape.org/namespaces/inkscape"
   xmlns:sodipodi="http://sodipodi.sourceforge.net/DTD/sodipodi-0.dtd"
   xmlns="http://www.w3.org/2000/svg"
   xmlns:svg="http://www.w3.org/2000/svg"><defs
     id="defs446" /><sodipodi:namedview
     id="namedview444"
     pagecolor="#ffffff"
     bordercolor="#000000"
     borderopacity="0.25"
     inkscape:showpageshadow="2"
     inkscape:pageopacity="0.0"
     inkscape:pagecheckerboard="0"
     inkscape:deskcolor="#d1d1d1"
     showgrid="false"
     inkscape:zoom="8.1739057"
     inkscape:cx="10.276605"
     inkscape:cy="22.143637"
     inkscape:window-width="1920"
     inkscape:window-height="1008"
     inkscape:window-x="0"
     inkscape:window-y="0"
     inkscape:window-maximized="1"
     inkscape:current-layer="svg442" /><g
     id="g4418"
     transform="translate(22.13564,21.431974)"><circle
       style="fill:#0db14b;fill-opacity:1"
       id="path117"
       cx="3.8643603"
       cy="4.5680261"
       r="26" /><g
       id="g451"
       transform="translate(-22.15064,-19.429474)"><path
         d="m 32.71,17.66 c 0,6.4 0,12.8 0,19.2 0,0.33 -0.03,0.67 -0.11,0.99 -0.36,1.36 -1.63,2.16 -3.04,1.96 -1.24,-0.18 -2.22,-1.35 -2.22,-2.67 0,-6.48 0,-12.96 0,-19.44 0,-0.16 0,-0.31 0,-0.51 -0.22,0 -0.41,-0.02 -0.59,0 -0.53,0.07 -0.93,-0.13 -1.27,-0.53 -0.29,-0.33 -0.61,-0.63 -0.95,-0.97 -0.4,0.41 -0.78,0.79 -1.15,1.17 -0.25,0.26 -0.56,0.35 -0.91,0.31 -1.36,-0.14 -2.43,-1.27 -2.44,-2.64 -0.02,-1.25 -0.01,-2.5 0,-3.74 0.01,-1.14998 0.77,-2.14998 1.86,-2.50998 0.66,-0.22 1.25,-0.19 1.73,0.41 0.27,0.34 0.6,0.64 0.91,0.97 0.44,-0.45 0.8,-0.85 1.2,-1.21 0.17,-0.15 0.42,-0.29 0.63,-0.29 2.35,0 4.69,0 7.04,0.08 1.54,0.05 3.01,0.48 4.36,1.24 2.63,1.48998 4.04,3.73998 4.1,6.79998 0,0.41 -0.18,0.68 -0.56,0.84 -0.38,0.15 -0.68,0.02 -0.94,-0.26 -0.1,-0.11 -0.19,-0.23 -0.29,-0.34 -0.8,-0.91 -1.71,-1.71 -2.79,-2.27 -0.55,-0.28 -1.14,-0.47 -1.8,-0.74 0,0.96 0,1.79 0,2.62 0,0.7 -0.34,1.04 -1.03,1.04 -0.56,0 -1.12,0 -1.72,0 0,0.19 0,0.33 0,0.47 z m 1.03,-3.88 c 0,-0.34 0,-0.67 0,-1.01 0.02,-0.68 0.42,-1.01 1.1,-0.97 1.6,0.1 3.01,0.69 4.3,1.6 0.1,0.07 0.19,0.14 0.37,0.27 -0.07,-0.17 -0.1,-0.25 -0.14,-0.33 -0.96,-1.67 -2.46,-2.62 -4.28,-3.07 -0.99,-0.24 -2.03,-0.35998 -3.05,-0.39998 -1.66,-0.07 -3.33,-0.03 -4.99,0 -0.19,0 -0.39,0.11 -0.55,0.21998 -0.92,0.63 -1.16,1.49 -1.15,2.6 0.01,1.06 0.22,1.88 1.08,2.52 0.23,0.17 0.41,0.28 0.7,0.28 2.05,-0.01 4.1,0 6.16,0 0.13,0 0.26,0 0.45,0 0,-0.59 0,-1.15 0,-1.71 z m -4.69,3.42 c 0,0.11 -0.02,0.22 -0.02,0.34 0,6.48 0,12.96 0,19.44 0,0.71 0.39,1.15 1.01,1.14 0.51,0 0.89,-0.36 0.93,-0.87 0.01,-0.15 0,-0.29 0,-0.44 0,-6.37 0,-12.75 0,-19.12 0,-0.16 0,-0.31 0,-0.49 z m -5.54,-2.91 c 0.1,-0.11 0.16,-0.28 0.16,-0.42 0.02,-0.8 0.02,-1.61 0,-2.41 0,-0.14 -0.07,-0.32 -0.17,-0.42 -0.3,-0.34 -0.63,-0.66 -0.97,-0.96 -0.08,-0.07 -0.3,-0.08 -0.39,-0.03 -0.33,0.19 -0.44,0.53 -0.44,0.89 0,1.15 -0.01,2.3 0,3.45 0,0.46 0.19,0.83 0.71,1.03 0.37,-0.38 0.75,-0.75 1.09,-1.14 z"
         fill="currentColor"
         id="path436" /><path
         d="m 10.94,39.84 c -0.56,-0.2 -0.77,-0.6 -0.77,-1.19 0,-9.76 0,-19.51 0,-29.27001 0,-0.85 0.35,-1.15 1.2,-1.2 1.21,-0.07 2.35,0.13 3.46,0.6 0.68,0.29 1.39,0.5 2.09,0.76 0.77,0.28 0.98,0.96001 0.49,1.62001 -0.26,0.36 -0.54,0.72 -0.83,1.11 0.47,0.17 0.9,0.33 1.33,0.48 0.86,0.31 1.06,0.97 0.51,1.72 -0.25,0.34 -0.5,0.67 -0.78,1.05 0.51,0.18 0.99,0.35 1.46,0.53 0.5,0.19 0.76,0.59 0.67,1.08 -0.04,0.19 -0.15,0.38 -0.26,0.55 -0.25,0.36 -0.52,0.71 -0.81,1.09 0.47,0.17 0.9,0.33 1.33,0.48 0.86,0.31 1.06,0.98 0.51,1.72 -0.25,0.34 -0.5,0.68 -0.78,1.05 0.46,0.16 0.89,0.32 1.31,0.47 0.89,0.32 1.09,0.98 0.52,1.73 -0.25,0.34 -0.5,0.67 -0.78,1.04 0.47,0.17 0.91,0.33 1.35,0.49 0.84,0.3 1.04,0.96 0.52,1.67 -0.31,0.42 -0.63,0.84 -0.94,1.26 -0.01,0.02 -0.02,0.04 -0.05,0.08 0.09,0.01 0.16,0.03 0.23,0.03 0.4,0 0.8,0 1.21,0 0.66,0.02 1.04,0.39 1.04,1.04 0,2.99 0,5.98 0,8.96 0,0.54 -0.29,0.85 -0.76,1.04 H 22.98 C 22.41,39.6 22.18,39.17 22.24,38.55 H 12.1 c 0.06,0.61 -0.17,1.05 -0.74,1.28 h -0.43 z m 6.3,-22.36 -0.04,-0.05 c -0.43,-0.16 -0.87,-0.3 -1.3,-0.48 -0.19,-0.08 -0.38,-0.17 -0.52,-0.31 -0.34,-0.33 -0.34,-0.84 -0.04,-1.27 0.28,-0.39 0.57,-0.77 0.87,-1.17 -0.27,-0.1 -0.5,-0.18 -0.74,-0.26 -0.24,-0.09 -0.49,-0.16 -0.73,-0.26 -0.69,-0.27 -0.89,-0.95 -0.47,-1.56 0.13,-0.19 0.27,-0.36 0.41,-0.54 0.15,-0.2 0.3,-0.4 0.49,-0.65 -1.07,-0.22 -1.95,-0.89 -3.04,-0.8 v 18.63 c 0,0 0.07,0.03 0.1,0.03 2.29,0 4.57,0 6.86,0 0.07,0 0.17,-0.03 0.21,-0.08 0.38,-0.49 0.75,-1 1.15,-1.52 -0.46,-0.16 -0.88,-0.31 -1.31,-0.47 -0.9,-0.32 -1.1,-0.98 -0.52,-1.75 0.25,-0.33 0.5,-0.67 0.77,-1.03 -0.5,-0.18 -0.96,-0.34 -1.41,-0.5 -0.77,-0.28 -0.97,-0.96 -0.48,-1.63 0.27,-0.37 0.54,-0.72 0.81,-1.09 -0.03,-0.03 -0.04,-0.05 -0.06,-0.05 -0.43,-0.16 -0.87,-0.32 -1.3,-0.48 -0.79,-0.29 -0.99,-0.97 -0.5,-1.64 0.26,-0.36 0.53,-0.71 0.8,-1.07 z M 12.12,36.59 H 22.23 V 30.76 H 12.12 Z"
         fill="currentColor"
         id="path438" /><path
         d="m 20.89,33.63 c 0,-0.72 -0.39,-1.1 -1.12,-1.1 -2.2,0 -2.98,-0.01 -5.18,0 -0.74,0 -1.12,0.38 -1.12,1.13 0,0.02 0,0.04 0,0.06 0,0.73 0.38,1.1 1.11,1.1 1.1,0 2.2,0 3.31,0 1.11,0 0.8,0.01 1.91,0 0.73,0 1.1,-0.37 1.11,-1.1 0,-0.03 0,-0.05 0,-0.07 0,0 0,0 0,-0.02 z"
         fill="currentColor"
         id="path440" /></g></g></svg>
