<svg width="48" height="48" viewBox="0 0 48 48" fill="none" xmlns="http://www.w3.org/2000/svg">
<path d="M32.71 17.66C32.71 24.06 32.71 30.46 32.71 36.86C32.71 37.19 32.68 37.53 32.6 37.85C32.24 39.21 30.97 40.01 29.56 39.81C28.32 39.63 27.34 38.46 27.34 37.14C27.34 30.66 27.34 24.18 27.34 17.7C27.34 17.54 27.34 17.39 27.34 17.19C27.12 17.19 26.93 17.17 26.75 17.19C26.22 17.26 25.82 17.06 25.48 16.66C25.19 16.33 24.87 16.03 24.53 15.69C24.13 16.1 23.75 16.48 23.38 16.86C23.13 17.12 22.82 17.21 22.47 17.17C21.11 17.03 20.04 15.9 20.03 14.53C20.01 13.28 20.02 12.03 20.03 10.79C20.04 9.64002 20.8 8.64002 21.89 8.28002C22.55 8.06002 23.14 8.09002 23.62 8.69002C23.89 9.03002 24.22 9.33002 24.53 9.66002C24.97 9.21002 25.33 8.81002 25.73 8.45002C25.9 8.30002 26.15 8.16002 26.36 8.16002C28.71 8.16002 31.05 8.16002 33.4 8.24002C34.94 8.29002 36.41 8.72002 37.76 9.48002C40.39 10.97 41.8 13.22 41.86 16.28C41.86 16.69 41.68 16.96 41.3 17.12C40.92 17.27 40.62 17.14 40.36 16.86C40.26 16.75 40.17 16.63 40.07 16.52C39.27 15.61 38.36 14.81 37.28 14.25C36.73 13.97 36.14 13.78 35.48 13.51C35.48 14.47 35.48 15.3 35.48 16.13C35.48 16.83 35.14 17.17 34.45 17.17C33.89 17.17 33.33 17.17 32.73 17.17C32.73 17.36 32.73 17.5 32.73 17.64L32.71 17.66ZM33.74 13.78C33.74 13.44 33.74 13.11 33.74 12.77C33.76 12.09 34.16 11.76 34.84 11.8C36.44 11.9 37.85 12.49 39.14 13.4C39.24 13.47 39.33 13.54 39.51 13.67C39.44 13.5 39.41 13.42 39.37 13.34C38.41 11.67 36.91 10.72 35.09 10.27C34.1 10.03 33.06 9.91002 32.04 9.87002C30.38 9.80002 28.71 9.84002 27.05 9.87002C26.86 9.87002 26.66 9.98002 26.5 10.09C25.58 10.72 25.34 11.58 25.35 12.69C25.36 13.75 25.57 14.57 26.43 15.21C26.66 15.38 26.84 15.49 27.13 15.49C29.18 15.48 31.23 15.49 33.29 15.49C33.42 15.49 33.55 15.49 33.74 15.49C33.74 14.9 33.74 14.34 33.74 13.78ZM29.05 17.2C29.05 17.31 29.03 17.42 29.03 17.54C29.03 24.02 29.03 30.5 29.03 36.98C29.03 37.69 29.42 38.13 30.04 38.12C30.55 38.12 30.93 37.76 30.97 37.25C30.98 37.1 30.97 36.96 30.97 36.81C30.97 30.44 30.97 24.06 30.97 17.69C30.97 17.53 30.97 17.38 30.97 17.2H29.05ZM23.51 14.29C23.61 14.18 23.67 14.01 23.67 13.87C23.69 13.07 23.69 12.26 23.67 11.46C23.67 11.32 23.6 11.14 23.5 11.04C23.2 10.7 22.87 10.38 22.53 10.08C22.45 10.01 22.23 10 22.14 10.05C21.81 10.24 21.7 10.58 21.7 10.94C21.7 12.09 21.69 13.24 21.7 14.39C21.7 14.85 21.89 15.22 22.41 15.42C22.78 15.04 23.16 14.67 23.5 14.28L23.51 14.29Z" fill="currentColor"/>
<path d="M10.94 39.84C10.38 39.64 10.17 39.24 10.17 38.65C10.17 28.89 10.17 19.14 10.17 9.37999C10.17 8.52999 10.52 8.22999 11.37 8.17999C12.58 8.10999 13.72 8.30999 14.83 8.77999C15.51 9.06999 16.22 9.27999 16.92 9.53999C17.69 9.81999 17.9 10.5 17.41 11.16C17.15 11.52 16.87 11.88 16.58 12.27C17.05 12.44 17.48 12.6 17.91 12.75C18.77 13.06 18.97 13.72 18.42 14.47C18.17 14.81 17.92 15.14 17.64 15.52C18.15 15.7 18.63 15.87 19.1 16.05C19.6 16.24 19.86 16.64 19.77 17.13C19.73 17.32 19.62 17.51 19.51 17.68C19.26 18.04 18.99 18.39 18.7 18.77C19.17 18.94 19.6 19.1 20.03 19.25C20.89 19.56 21.09 20.23 20.54 20.97C20.29 21.31 20.04 21.65 19.76 22.02C20.22 22.18 20.65 22.34 21.07 22.49C21.96 22.81 22.16 23.47 21.59 24.22C21.34 24.56 21.09 24.89 20.81 25.26C21.28 25.43 21.72 25.59 22.16 25.75C23 26.05 23.2 26.71 22.68 27.42C22.37 27.84 22.05 28.26 21.74 28.68C21.73 28.7 21.72 28.72 21.69 28.76C21.78 28.77 21.85 28.79 21.92 28.79C22.32 28.79 22.72 28.79 23.13 28.79C23.79 28.81 24.17 29.18 24.17 29.83C24.17 32.82 24.17 35.81 24.17 38.79C24.17 39.33 23.88 39.64 23.41 39.83H22.98C22.41 39.6 22.18 39.17 22.24 38.55H12.1C12.16 39.16 11.93 39.6 11.36 39.83H10.93L10.94 39.84ZM17.24 17.48L17.2 17.43C16.77 17.27 16.33 17.13 15.9 16.95C15.71 16.87 15.52 16.78 15.38 16.64C15.04 16.31 15.04 15.8 15.34 15.37C15.62 14.98 15.91 14.6 16.21 14.2C15.94 14.1 15.71 14.02 15.47 13.94C15.23 13.85 14.98 13.78 14.74 13.68C14.05 13.41 13.85 12.73 14.27 12.12C14.4 11.93 14.54 11.76 14.68 11.58C14.83 11.38 14.98 11.18 15.17 10.93C14.1 10.71 13.22 10.04 12.13 10.13V28.76C12.13 28.76 12.2 28.79 12.23 28.79C14.52 28.79 16.8 28.79 19.09 28.79C19.16 28.79 19.26 28.76 19.3 28.71C19.68 28.22 20.05 27.71 20.45 27.19C19.99 27.03 19.57 26.88 19.14 26.72C18.24 26.4 18.04 25.74 18.62 24.97C18.87 24.64 19.12 24.3 19.39 23.94C18.89 23.76 18.43 23.6 17.98 23.44C17.21 23.16 17.01 22.48 17.5 21.81C17.77 21.44 18.04 21.09 18.31 20.72C18.28 20.69 18.27 20.67 18.25 20.67C17.82 20.51 17.38 20.35 16.95 20.19C16.16 19.9 15.96 19.22 16.45 18.55C16.71 18.19 16.98 17.84 17.25 17.48H17.24ZM12.12 36.59H22.23V30.76H12.12V36.59Z" fill="currentColor"/>
<path d="M20.89 33.63C20.89 32.91 20.5 32.53 19.77 32.53C17.57 32.53 16.79 32.52 14.59 32.53C13.85 32.53 13.47 32.91 13.47 33.66C13.47 33.68 13.47 33.7 13.47 33.72C13.47 34.45 13.85 34.82 14.58 34.82C15.68 34.82 16.78 34.82 17.89 34.82C19 34.82 18.69 34.83 19.8 34.82C20.53 34.82 20.9 34.45 20.91 33.72C20.91 33.69 20.91 33.67 20.91 33.65C20.91 33.65 20.91 33.65 20.91 33.63H20.89Z" fill="currentColor"/>
</svg>
