<?xml version="1.0" encoding="UTF-8" standalone="no"?>
<svg

   viewBox="0 0 52 52"
   fill="none"
   version="1.1"
   id="svg529"
   sodipodi:docname="ilukool-circle.svg"
   inkscape:version="1.2.2 (b0a8486541, 2022-12-01)"
   xml:space="preserve"
   xmlns:inkscape="http://www.inkscape.org/namespaces/inkscape"
   xmlns:sodipodi="http://sodipodi.sourceforge.net/DTD/sodipodi-0.dtd"
   xmlns="http://www.w3.org/2000/svg"
   xmlns:svg="http://www.w3.org/2000/svg"><defs
     id="defs533" /><sodipodi:namedview
     id="namedview531"
     pagecolor="#ffffff"
     bordercolor="#000000"
     borderopacity="0.25"
     inkscape:showpageshadow="2"
     inkscape:pageopacity="0.0"
     inkscape:pagecheckerboard="0"
     inkscape:deskcolor="#d1d1d1"
     showgrid="false"
     inkscape:zoom="1.7413895"
     inkscape:cx="136.67247"
     inkscape:cy="75.801535"
     inkscape:window-width="1920"
     inkscape:window-height="1008"
     inkscape:window-x="0"
     inkscape:window-y="0"
     inkscape:window-maximized="1"
     inkscape:current-layer="svg529" /><g
     id="g4457"
     transform="translate(37.648665,22.997001)"><circle
       style="fill:#b41e8e;fill-opacity:1"
       id="path117"
       cx="-11.648665"
       cy="3.0029988"
       r="26" /><g
       id="g538"
       transform="translate(-35.657266,-20.989989)"><path
         d="m 17.04,8 c 0,0 0.07,0.04 0.11,0.05 0.88,0.25 1.38,0.88 1.45,1.78 0.24,2.93 0.49,5.85 0.73,8.78 0.17,2.03 0.34,4.07 0.51,6.1 0.08,0.97 -0.1,1.88 -0.64,2.71 -0.05,0.08 -0.07,0.22 -0.05,0.31 0.29,1.2 0.59,2.4 0.9,3.6 0.02,0.09 0.12,0.21 0.2,0.22 1.35,0.23 2.25,1.04 2.86,2.2 0.67,1.27 0.83,2.61 0.35,3.99 -0.85,2.41 -3.5,3.01 -5.31,1.21 -1.41,-1.4 -1.88,-3.67 -1.12,-5.43 0.24,-0.55 0.59,-1.02 1.07,-1.4 0.07,-0.06 0.15,-0.19 0.14,-0.26 -0.23,-0.99 -0.49,-1.98 -0.74,-2.99 -1.09,0.44 -2.16,0.45 -3.25,0 -0.26,1.01 -0.51,2.01 -0.75,3.01 -0.01,0.06 0.03,0.17 0.09,0.2 1.46,1.03 1.82,3.23 1.19,5 -0.35,0.99 -0.93,1.81 -1.83,2.38 -1.54,0.98 -3.34998,0.57 -4.30998,-0.98 -1.31,-2.11 -0.43001,-5.4 1.76998,-6.56 0.32,-0.17 0.69,-0.23 1.02,-0.36 0.1,-0.04 0.24,-0.13 0.26,-0.22 0.32,-1.2 0.62,-2.4 0.91,-3.6 0.02,-0.09 0.02,-0.22 -0.03,-0.29 -0.66,-0.97 -0.74,-2.04 -0.63,-3.17 0.2,-2.15 0.37,-4.29 0.55,-6.44 0.18,-2.13 0.36,-4.25 0.54,-6.38 0.05,-0.55 0.09,-1.1 0.14,-1.65 0.07,-0.89 0.54,-1.48 1.4,-1.75 0.04,-0.01 0.07,-0.04 0.1,-0.06 0.79,0 1.58,0 2.38,0 z m -2,1.89 c -0.02,0.15 -0.04,0.29 -0.05,0.44 -0.15,1.87 -0.3,3.73 -0.46,5.6 -0.25,3.05 -0.52,6.1 -0.77,9.15 -0.11,1.41 1.23,2.54 2.61,2.2 1.03,-0.26 1.69,-1.12 1.61,-2.22 -0.13,-1.9 -0.3,-3.8 -0.46,-5.69 -0.18,-2.14 -0.36,-4.27 -0.54,-6.41 -0.09,-1.01 -0.17,-2.03 -0.26,-3.05 h -1.68 z m 6.83,26.53 c -0.06,-1.18 -0.35,-2.04 -1.12,-2.66 -0.74,-0.61 -1.57,-0.41 -1.97,0.47 -0.25,0.54 -0.29,1.1 -0.18,1.68 0.16,0.81 0.5,1.52 1.22,1.99 0.67,0.43 1.35,0.27 1.71,-0.43 0.19,-0.38 0.27,-0.82 0.34,-1.04 z M 13.2,35.15 c -0.04,-0.17 -0.08,-0.51 -0.2,-0.83 -0.37,-0.97 -1.24,-1.19 -2.04,-0.54 -0.89,0.72 -1.29999,2.21 -0.91,3.33 0.38,1.09 1.35,1.34 2.19,0.54 0.66,-0.63 0.94,-1.43 0.96,-2.51 z"
         fill="currentColor"
         id="path523" /><path
         d="m 16.8,24.8401 c 0,0.52 -0.43,0.92 -0.95,0.91 -0.51,0 -0.93,-0.45 -0.92,-0.95 0.01,-0.51 0.46,-0.93 0.96,-0.92 0.51,0.01 0.92,0.44 0.91,0.96 z"
         fill="currentColor"
         id="path525" /><path
         d="m 28.7,39.99 c -0.26,-0.12 -0.55,-0.21 -0.78,-0.37 -0.59,-0.4 -0.84,-0.99 -0.83,-1.69 0,-1.95 0,-3.89 0,-5.84 0,-3.5 0,-7 0,-10.5 0,-0.21 -0.08,-0.45 -0.2,-0.63 -1.49,-2.22 -2.98,-4.44 -4.5,-6.64 -0.35,-0.51 -0.37,-0.96 -0.04,-1.49 3.99,-6.46998 13.47,-6.44998 17.42,0.04 0.31,0.5 0.29,0.92 -0.04,1.41 -1.53,2.22 -3.03,4.46 -4.53,6.7 -0.11,0.17 -0.19,0.4 -0.19,0.6 0,5.33 0,10.66 0,16 0,1.42 -0.31,1.88 -1.6,2.41 h -4.69 z m 4.16,-19.97 c 0.42,0.07 0.72,0.06 0.97,-0.35 0.58,-0.94 1.22,-1.83 1.84,-2.75 0.76,-1.12 1.52,-2.24 2.28,-3.36 C 37.91,13.5 37.87,13.45 37.84,13.4 34.59,8.76002 27.62,8.71002 24.3,13.3 c -0.14,0.19 -0.15,0.31 -0.01,0.51 1.33,1.94 2.64,3.89 3.96,5.84 0.31,0.46 0.37,0.49 0.97,0.36 -0.18,-0.54 -0.36,-1.08 -0.53,-1.63 -0.05,-0.17 -0.09,-0.35 -0.08,-0.52 0.04,-0.43 0.38,-0.76 0.78,-0.81 0.46,-0.05 0.85,0.16 1.01,0.6 0.22,0.59 0.41,1.2 0.63,1.85 0.05,-0.14 0.08,-0.23 0.11,-0.31 0.17,-0.5 0.33,-1.01 0.51,-1.51 0.18,-0.5 0.69,-0.76 1.18,-0.6 0.47,0.15 0.73,0.65 0.6,1.15 -0.02,0.1 -0.07,0.2 -0.1,0.3 -0.16,0.49 -0.32,0.98 -0.49,1.49 z M 33.1,38.1 V 21.94 H 28.99 V 38.1 Z"
         fill="currentColor"
         id="path527" /></g></g></svg>
