<svg width="48" height="48" viewBox="0 0 48 48" fill="none" xmlns="http://www.w3.org/2000/svg">
<path d="M7.19 33.8C7.19 26.12 7.19 18.44 7.19 10.76C7.58 9.54997 8.44 9.15997 9.67 9.15997C19.32 9.18997 28.97 9.17997 38.61 9.15997C39.96 9.15997 40.81 10.15 40.8 11.34C40.78 18.64 40.79 25.93 40.79 33.23C40.79 34.63 39.99 35.43 38.59 35.43C35.82 35.43 33.06 35.43 30.29 35.43H29.92V38.87C30.72 38.87 31.49 38.87 32.27 38.87C32.88 38.87 33.32 39.3 33.32 39.86C33.32 40.42 32.89 40.83 32.27 40.84C26.76 40.84 21.24 40.84 15.73 40.84C15.11 40.84 14.68 40.43 14.68 39.86C14.68 39.3 15.12 38.88 15.73 38.87C16.4 38.87 17.06 38.87 17.73 38.87C17.84 38.87 17.96 38.87 18.07 38.87V35.43C17.92 35.43 17.79 35.43 17.66 35.43C14.88 35.43 12.1 35.43 9.32 35.43C8.23 35.43 7.55 34.92 7.24 33.88C7.24 33.85 7.21 33.83 7.19 33.8ZM38.82 11.17H9.18V29.5H38.82V11.17ZM38.82 31.52H9.18V33.44H38.82V31.52ZM20.07 35.64V38.82H27.91V35.64H20.07Z" fill="currentColor"/>
<path d="M24.12 17.05C25.93 17.05 27.75 17.05 29.56 17.05C30.13 17.05 30.55 17.47 30.55 18.01C30.55 18.53 30.16 18.96 29.61 19.01C29.51 19.01 29.41 19.01 29.32 19.01C27.2 19.01 25.08 19.01 22.96 19.01C21.56 19.01 20.16 19.01 18.76 19.01C17.91 19.01 17.41 18.21 17.83 17.52C18.04 17.17 18.37 17.04 18.77 17.04C20.55 17.04 22.33 17.04 24.11 17.04L24.12 17.05Z" fill="currentColor"/>
<path d="M20.99 20.99C21.72 20.99 22.45 20.99 23.18 20.99C23.82 20.99 24.26 21.4 24.25 21.97C24.25 22.54 23.8 22.95 23.17 22.95C21.71 22.95 20.24 22.95 18.78 22.95C18.14 22.95 17.7 22.54 17.69 21.97C17.69 21.38 18.13 20.98 18.79 20.98C19.52 20.98 20.25 20.98 20.98 20.98L20.99 20.99Z" fill="currentColor"/>
<path d="M18.15 13.11C18.8 13.11 19.46 13.11 20.11 13.11C20.73 13.11 21.16 13.52 21.16 14.08C21.16 14.64 20.73 15.07 20.12 15.07C18.78 15.07 17.43 15.07 16.09 15.07C15.49 15.07 15.05 14.63 15.05 14.07C15.05 13.51 15.49 13.11 16.11 13.1C16.79 13.1 17.46 13.1 18.14 13.1L18.15 13.11Z" fill="currentColor"/>
<path d="M18.15 24.93C18.8 24.93 19.46 24.93 20.11 24.93C20.73 24.93 21.16 25.34 21.16 25.9C21.16 26.46 20.73 26.89 20.12 26.89C18.78 26.89 17.43 26.89 16.09 26.89C15.49 26.89 15.05 26.45 15.05 25.89C15.05 25.33 15.49 24.93 16.11 24.92C16.79 24.92 17.46 24.92 18.14 24.92L18.15 24.93Z" fill="currentColor"/>
<path d="M28.37 20.99C28.92 20.99 29.46 20.99 30.01 20.99C30.62 20.99 31.05 21.41 31.05 21.98C31.05 22.53 30.62 22.95 30.03 22.96C28.92 22.97 27.8 22.97 26.69 22.96C26.1 22.96 25.69 22.52 25.69 21.97C25.69 21.41 26.11 21.01 26.71 21C26.73 21 26.75 21 26.78 21C27.31 21 27.85 21 28.38 21L28.37 20.99Z" fill="currentColor"/>
<path d="M34.73 17.05C35.11 17.05 35.49 17.05 35.88 17.05C36.43 17.06 36.84 17.46 36.87 17.99C36.89 18.52 36.49 18.99 35.93 19.01C35.11 19.04 34.29 19.04 33.48 19.01C32.92 18.99 32.52 18.52 32.54 17.99C32.56 17.46 32.97 17.07 33.53 17.05C33.55 17.05 33.57 17.05 33.6 17.05C33.98 17.05 34.36 17.05 34.75 17.05H34.73Z" fill="currentColor"/>
<path d="M34.71 20.99C35.09 20.99 35.47 20.99 35.86 20.99C36.43 21 36.85 21.4 36.86 21.94C36.87 22.46 36.48 22.92 35.94 22.94C35.11 22.97 34.28 22.97 33.45 22.94C32.91 22.92 32.52 22.46 32.53 21.94C32.54 21.4 32.96 21 33.53 20.99C33.92 20.99 34.32 20.99 34.71 20.99Z" fill="currentColor"/>
<path d="M12.13 13.12C12.67 13.12 13.11 13.57 13.1 14.11C13.09 14.64 12.62 15.09 12.1 15.08C11.57 15.07 11.12 14.6 11.13 14.08C11.13 13.54 11.59 13.11 12.13 13.12Z" fill="currentColor"/>
<path d="M13.1 18.05C13.09 18.58 12.62 19.03 12.1 19.02C11.57 19.01 11.12 18.54 11.13 18.01C11.13 17.47 11.59 17.04 12.13 17.05C12.67 17.05 13.11 17.51 13.1 18.04V18.05Z" fill="currentColor"/>
<path d="M12.13 20.99C12.67 20.99 13.11 21.45 13.09 21.99C13.08 22.52 12.61 22.97 12.09 22.96C11.56 22.95 11.12 22.48 11.13 21.95C11.14 21.41 11.59 20.98 12.13 20.99Z" fill="currentColor"/>
<path d="M12.11 24.93C12.65 24.93 13.1 25.36 13.1 25.9C13.1 26.43 12.65 26.89 12.12 26.89C11.6 26.89 11.13 26.44 11.13 25.91C11.13 25.37 11.57 24.93 12.11 24.93Z" fill="currentColor"/>
</svg>
