<?xml version="1.0" encoding="UTF-8" standalone="no"?>
<svg
   width="33.610088"
   height="31.680031"
   viewBox="0 0 33.610088 31.680031"
   fill="none"
   version="1.1"
   id="svg623"
   sodipodi:docname="itkool.svg"
   inkscape:version="1.2.2 (b0a8486541, 2022-12-01)"
   xmlns:inkscape="http://www.inkscape.org/namespaces/inkscape"
   xmlns:sodipodi="http://sodipodi.sourceforge.net/DTD/sodipodi-0.dtd"
   xmlns="http://www.w3.org/2000/svg"
   xmlns:svg="http://www.w3.org/2000/svg">
  <defs
     id="defs627" />
  <sodipodi:namedview
     id="namedview625"
     pagecolor="#ffffff"
     bordercolor="#000000"
     borderopacity="0.25"
     inkscape:showpageshadow="2"
     inkscape:pageopacity="0.0"
     inkscape:pagecheckerboard="0"
     inkscape:deskcolor="#d1d1d1"
     showgrid="false"
     inkscape:zoom="17.458333"
     inkscape:cx="8.24821"
     inkscape:cy="15.866348"
     inkscape:window-width="1920"
     inkscape:window-height="1008"
     inkscape:window-x="0"
     inkscape:window-y="0"
     inkscape:window-maximized="1"
     inkscape:current-layer="svg623" />
  <g
     id="g641"
     transform="translate(-7.19,-9.15997)">
    <path
       d="m 7.19,33.8 c 0,-7.68 0,-15.36 0,-23.04 0.39,-1.21003 1.25,-1.60003 2.48,-1.60003 9.65,0.03 19.3,0.02 28.94,0 1.35,0 2.2,0.99003 2.19,2.18003 -0.02,7.3 -0.01,14.59 -0.01,21.89 0,1.4 -0.8,2.2 -2.2,2.2 -2.77,0 -5.53,0 -8.3,0 h -0.37 v 3.44 c 0.8,0 1.57,0 2.35,0 0.61,0 1.05,0.43 1.05,0.99 0,0.56 -0.43,0.97 -1.05,0.98 -5.51,0 -11.03,0 -16.54,0 -0.62,0 -1.05,-0.41 -1.05,-0.98 0,-0.56 0.44,-0.98 1.05,-0.99 0.67,0 1.33,0 2,0 0.11,0 0.23,0 0.34,0 v -3.44 c -0.15,0 -0.28,0 -0.41,0 -2.78,0 -5.56,0 -8.34,0 -1.09,0 -1.77,-0.51 -2.08,-1.55 0,-0.03 -0.03,-0.05 -0.05,-0.08 z M 38.82,11.17 H 9.18 V 29.5 h 29.64 z m 0,20.35 H 9.18 v 1.92 h 29.64 z m -18.75,4.12 v 3.18 h 7.84 v -3.18 z"
       fill="currentColor"
       id="path599" />
    <path
       d="m 24.12,17.05 c 1.81,0 3.63,0 5.44,0 0.57,0 0.99,0.42 0.99,0.96 0,0.52 -0.39,0.95 -0.94,1 -0.1,0 -0.2,0 -0.29,0 -2.12,0 -4.24,0 -6.36,0 -1.4,0 -2.8,0 -4.2,0 -0.85,0 -1.35,-0.8 -0.93,-1.49 0.21,-0.35 0.54,-0.48 0.94,-0.48 1.78,0 3.56,0 5.34,0 z"
       fill="currentColor"
       id="path601" />
    <path
       d="m 20.99,20.99 c 0.73,0 1.46,0 2.19,0 0.64,0 1.08,0.41 1.07,0.98 0,0.57 -0.45,0.98 -1.08,0.98 -1.46,0 -2.93,0 -4.39,0 -0.64,0 -1.08,-0.41 -1.09,-0.98 0,-0.59 0.44,-0.99 1.1,-0.99 0.73,0 1.46,0 2.19,0 z"
       fill="currentColor"
       id="path603" />
    <path
       d="m 18.15,13.11 c 0.65,0 1.31,0 1.96,0 0.62,0 1.05,0.41 1.05,0.97 0,0.56 -0.43,0.99 -1.04,0.99 -1.34,0 -2.69,0 -4.03,0 -0.6,0 -1.04,-0.44 -1.04,-1 0,-0.56 0.44,-0.96 1.06,-0.97 0.68,0 1.35,0 2.03,0 z"
       fill="currentColor"
       id="path605" />
    <path
       d="m 18.15,24.93 c 0.65,0 1.31,0 1.96,0 0.62,0 1.05,0.41 1.05,0.97 0,0.56 -0.43,0.99 -1.04,0.99 -1.34,0 -2.69,0 -4.03,0 -0.6,0 -1.04,-0.44 -1.04,-1 0,-0.56 0.44,-0.96 1.06,-0.97 0.68,0 1.35,0 2.03,0 z"
       fill="currentColor"
       id="path607" />
    <path
       d="m 28.37,20.99 c 0.55,0 1.09,0 1.64,0 0.61,0 1.04,0.42 1.04,0.99 0,0.55 -0.43,0.97 -1.02,0.98 -1.11,0.01 -2.23,0.01 -3.34,0 -0.59,0 -1,-0.44 -1,-0.99 0,-0.56 0.42,-0.96 1.02,-0.97 0.02,0 0.04,0 0.07,0 0.53,0 1.07,0 1.6,0 z"
       fill="currentColor"
       id="path609" />
    <path
       d="m 34.73,17.05 c 0.38,0 0.76,0 1.15,0 0.55,0.01 0.96,0.41 0.99,0.94 0.02,0.53 -0.38,1 -0.94,1.02 -0.82,0.03 -1.64,0.03 -2.45,0 -0.56,-0.02 -0.96,-0.49 -0.94,-1.02 0.02,-0.53 0.43,-0.92 0.99,-0.94 0.02,0 0.04,0 0.07,0 0.38,0 0.76,0 1.15,0 z"
       fill="currentColor"
       id="path611" />
    <path
       d="m 34.71,20.99 c 0.38,0 0.76,0 1.15,0 0.57,0.01 0.99,0.41 1,0.95 0.01,0.52 -0.38,0.98 -0.92,1 -0.83,0.03 -1.66,0.03 -2.49,0 -0.54,-0.02 -0.93,-0.48 -0.92,-1 0.01,-0.54 0.43,-0.94 1,-0.95 0.39,0 0.79,0 1.18,0 z"
       fill="currentColor"
       id="path613" />
    <path
       d="m 12.13,13.12 c 0.54,0 0.98,0.45 0.97,0.99 -0.01,0.53 -0.48,0.98 -1,0.97 -0.53,-0.01 -0.98,-0.48 -0.97,-1 0,-0.54 0.46,-0.97 1,-0.96 z"
       fill="currentColor"
       id="path615" />
    <path
       d="m 13.1,18.05 c -0.01,0.53 -0.48,0.98 -1,0.97 -0.53,-0.01 -0.98,-0.48 -0.97,-1.01 0,-0.54 0.46,-0.97 1,-0.96 0.54,0 0.98,0.46 0.97,0.99 z"
       fill="currentColor"
       id="path617" />
    <path
       d="m 12.13,20.99 c 0.54,0 0.98,0.46 0.96,1 -0.01,0.53 -0.48,0.98 -1,0.97 -0.53,-0.01 -0.97,-0.48 -0.96,-1.01 0.01,-0.54 0.46,-0.97 1,-0.96 z"
       fill="currentColor"
       id="path619" />
    <path
       d="m 12.11,24.93 c 0.54,0 0.99,0.43 0.99,0.97 0,0.53 -0.45,0.99 -0.98,0.99 -0.52,0 -0.99,-0.45 -0.99,-0.98 0,-0.54 0.44,-0.98 0.98,-0.98 z"
       fill="currentColor"
       id="path621" />
  </g>
</svg>
