<?xml version="1.0" encoding="UTF-8" standalone="no"?>
<svg
   width="31.655785"
   height="31.667656"
   viewBox="0 0 31.655785 31.667656"
   fill="none"
   version="1.1"
   id="svg707"
   sodipodi:docname="tehnikakool.svg"
   inkscape:version="1.2.2 (b0a8486541, 2022-12-01)"
   xmlns:inkscape="http://www.inkscape.org/namespaces/inkscape"
   xmlns:sodipodi="http://sodipodi.sourceforge.net/DTD/sodipodi-0.dtd"
   xmlns="http://www.w3.org/2000/svg"
   xmlns:svg="http://www.w3.org/2000/svg">
  <defs
     id="defs711" />
  <sodipodi:namedview
     id="namedview709"
     pagecolor="#ffffff"
     bordercolor="#000000"
     borderopacity="0.25"
     inkscape:showpageshadow="2"
     inkscape:pageopacity="0.0"
     inkscape:pagecheckerboard="0"
     inkscape:deskcolor="#d1d1d1"
     showgrid="false"
     inkscape:zoom="17.458333"
     inkscape:cx="7.274463"
     inkscape:cy="15.809069"
     inkscape:window-width="1920"
     inkscape:window-height="1008"
     inkscape:window-x="0"
     inkscape:window-y="0"
     inkscape:window-maximized="1"
     inkscape:current-layer="svg707" />
  <path
     d="m 0.01,25.867656 c 0.13,-0.8 0.62,-1.39 1.18,-1.94 1.0499797,-1.02 2.0699797,-2.07 3.1099797,-3.1 0.51,-0.5 0.89,-0.54 1.47,-0.14 0.26,0.18 0.53,0.17 0.7,-0.02 0.19,-0.22 0.17,-0.44 0.01,-0.68 -0.42,-0.61 -0.39,-0.96 0.14,-1.49 0.66,-0.66 1.33,-1.33 1.99,-1.99 0.81,-0.81 1.6800003,-0.81 2.4800003,0 0.11,0.11 0.2,0.24 0.28,0.34 0.25,-0.24 0.45,-0.44 0.73,-0.72 -0.09,-0.06 -0.22,-0.12 -0.31,-0.21 -0.96,-0.95 -1.9200003,-1.9 -2.8700003,-2.87 -0.15,-0.15 -0.27,-0.2 -0.48,-0.13 -2.42,0.79 -5.05,0.09 -6.6999697,-1.88 C 0.02001,8.9776558 -0.25,6.6676558 0.84,4.2176558 c 0.33,-0.73 1.0599797,-0.85 1.6299797,-0.28 1.07,1.06 2.13,2.13 3.19,3.19 0.21,0.21 0.44,0.37 0.76,0.31 0.51,-0.1 0.74,-0.64 0.47,-1.07 -0.07,-0.11 -0.17,-0.21 -0.26,-0.3 -1.02,-1.02 -2.04,-2.04 -3.06,-3.06 -0.69,-0.69 -0.56,-1.3699703 0.32,-1.7799703 3.83,-1.77 8.3500003,0.7399703 8.8500003,4.9199703 0.11,0.95 0.02,1.87 -0.26,2.78 -0.03,0.1 -0.03,0.26 0.03,0.33 1.07,1.0900002 2.15,2.1700002 3.24,3.2600002 0.09,-0.08 0.17,-0.14 0.24,-0.22 2.05,-2.05 4.1,-4.1000002 6.15,-6.1400002 0.14,-0.14 0.21,-0.28 0.18,-0.49 -0.05,-0.36 -0.08,-0.72 -0.12,-1.08 -0.05,-0.44 0.1,-0.78 0.45,-1.05 1.41,-1.09 2.81,-2.1899703 4.22,-3.2799703 0.48,-0.37 0.96,-0.34 1.39,0.08 1.02,1.02 2.04,2.0399703 3.06,3.0599703 0.41,0.41 0.45,0.9 0.09,1.36 -1.1,1.43 -2.22,2.85 -3.32,4.27 -0.24,0.31 -0.54,0.46 -0.94,0.43 -0.38,-0.03 -0.76,-0.05 -1.14,-0.06 -0.1,0 -0.23,0.04 -0.3,0.1 -2.15,2.1400002 -4.29,4.2900002 -6.43,6.4300002 0,0 0,0.02 -0.02,0.05 0.04,0.05 0.09,0.11 0.15,0.17 0.97,0.97 1.94,1.94 2.9,2.91 0.15,0.15 0.26,0.16 0.46,0.11 2.62,-0.76 4.91,-0.17 6.69,1.88 1.75,2.02 2,4.34 0.93,6.79 -0.34,0.77 -1.07,0.9 -1.67,0.3 -1.06,-1.05 -2.11,-2.12 -3.18,-3.16 -0.17,-0.16 -0.41,-0.29 -0.63,-0.33 -0.25,-0.04 -0.47,0.1 -0.61,0.34 -0.13,0.23 -0.14,0.47 0,0.7 0.07,0.12 0.17,0.23 0.27,0.33 1.03,1.03 2.06,2.06 3.08,3.09 0.67,0.67 0.52,1.36 -0.33,1.75 -3.68,1.68 -7.87,-0.48 -8.75,-4.33 -0.26,-1.12 -0.19,-2.23 0.15,-3.33 0.04,-0.11 0.03,-0.31 -0.04,-0.38 -1.03,-1.05 -2.08,-2.09 -3.13,-3.15 -0.2,0.22 -0.39,0.43 -0.64,0.71 0.09,0.07 0.23,0.15 0.34,0.27 0.68,0.7 0.69,1.59 0.01,2.29 -0.73,0.75 -1.47,1.48 -2.21,2.21 -0.42,0.41 -0.86,0.42 -1.33,0.07 -0.07,-0.05 -0.13,-0.1 -0.2,-0.14 -0.2,-0.11 -0.44,-0.11 -0.56,0.08 -0.1,0.15 -0.09,0.37 -0.1,0.56 0,0.06 0.07,0.12 0.11,0.18 0.41,0.55 0.38,0.96 -0.1,1.45 -1.0600003,1.06 -2.1200003,2.11 -3.1700003,3.18 -0.54,0.55 -1.12,1 -1.89,1.14 h -0.62 c -0.75,-0.14 -1.33,-0.55 -1.85,-1.1 -0.71,-0.74 -1.43,-1.46 -2.1599797,-2.17 -0.57,-0.55 -1.05,-1.13 -1.18,-1.94 v -0.62 z m 9.8399797,-7.91 c -0.45,0.45 -0.88,0.9 -1.33,1.34 -0.13,0.13 -0.14,0.23 -0.1,0.4 0.49,1.79 -1.12,3.42 -2.93,2.94 -0.19,-0.05 -0.3,-0.02 -0.43,0.11 -0.94,0.95 -1.88,1.88 -2.82,2.82 -0.4499697,0.45 -0.4499697,0.76 0,1.21 0.89,0.89 1.78,1.78 2.67,2.67 0.45,0.45 0.76,0.45 1.21,0 0.89,-0.89 1.77,-1.79 2.67,-2.66 0.22,-0.22 0.34,-0.4 0.19,-0.71 -0.06,-0.11 -0.06,-0.26 -0.07,-0.39 -0.09,-1.71 1.4700003,-2.92 3.1200003,-2.44 0.09,0.03 0.23,0.04 0.28,-0.01 0.48,-0.46 0.95,-0.94 1.41,-1.4 -1.3,-1.3 -2.58,-2.57 -3.8900003,-3.89 z m -7.66,-11.6500002 c -0.17,1.37 0.15,2.53 1.02,3.51 1.33,1.5200002 3.25,1.9300002 5.11,1.1500002 0.71,-0.3 0.96,-0.25 1.51,0.3 1.1200003,1.12 2.2500003,2.25 3.3700003,3.37 0.08,0.08 0.16,0.15 0.2,0.19 0.35,-0.34 0.68,-0.66 1.05,-1.03 -0.07,-0.06 -0.18,-0.11 -0.25,-0.19 -1.15,-1.15 -2.3,-2.3 -3.46,-3.45 -0.36,-0.3600002 -0.48,-0.7600002 -0.27,-1.2300002 0.04,-0.08 0.07,-0.17 0.11,-0.26 1.06,-2.6 -0.44,-5.43 -3.1900003,-6.01 -0.48,-0.1 -0.96,-0.15 -1.51,0 0.13,0.12 0.23,0.2 0.31,0.28 0.73,0.74 1.5,1.45 2.18,2.24 1.04,1.21 0.62,3.12 -0.78,3.87 -1.09,0.58 -2.26,0.4 -3.17,-0.5 -0.73,-0.72 -1.46,-1.45 -2.23,-2.23 z M 16.89998,18.397656 c 0.09,0.07 0.19,0.14 0.27,0.22 1.12,1.12 2.24,2.25 3.37,3.37 0.36,0.36 0.48,0.76 0.26,1.23 -0.05,0.1 -0.09,0.21 -0.13,0.31 -1.04,2.56 0.54,5.46 3.27,5.96 0.46,0.08 0.92,0.14 1.42,0 -0.41,-0.41 -0.79,-0.78 -1.17,-1.16 -0.43,-0.44 -0.89,-0.86 -1.29,-1.33 -0.85,-1.02 -0.76,-2.52 0.18,-3.46 0.93,-0.94 2.48,-1.05 3.48,-0.17 0.78,0.69 1.49,1.45 2.23,2.18 0.08,0.08 0.16,0.15 0.26,0.25 0.02,-0.08 0.03,-0.13 0.04,-0.17 0.31,-1.98 -1.2,-4.19 -3.21,-4.69 -1.04,-0.26 -2.04,-0.19 -3.01,0.26 -0.53,0.25 -0.97,0.16 -1.37,-0.26 -0.53,-0.55 -1.08,-1.08 -1.62,-1.62 -0.65,-0.66 -1.31,-1.31 -1.96,-1.96 -0.34,0.34 -0.67,0.67 -1.04,1.05 z m -3.3,0.58 c 0.08,-0.07 0.15,-0.14 0.22,-0.21 2.76,-2.76 5.53,-5.53 8.29,-8.29 0.87,-0.8700002 1.74,-1.7300002 2.6,-2.6100002 0.27,-0.28 0.58,-0.42 0.97,-0.38 0.16,0.02 0.34,0 0.49,0.03 0.52,0.13 0.84,-0.07 1.15,-0.5 0.68,-0.95 1.43,-1.86 2.12,-2.75 -0.68,-0.68 -1.33,-1.34 -2,-2.01 -1.04,0.81 -2.09,1.63 -3.14,2.46 -0.07,0.05 -0.11,0.19 -0.1,0.28 0.02,0.32 0.03,0.64 0.09,0.95 0.09,0.5 -0.09,0.86 -0.44,1.21 -3.6,3.5900002 -7.19,7.1800002 -10.79,10.7800002 -0.08,0.08 -0.16,0.17 -0.23,0.24 0.27,0.28 0.51,0.53 0.77,0.79 z"
     fill="currentColor"
     id="path705" />
</svg>
