<?xml version="1.0" encoding="UTF-8" standalone="no"?>
<svg
   viewBox="0 0 52.000001 52"
   fill="none"
   version="1.1"
   id="svg389"
   xmlns="http://www.w3.org/2000/svg"
   xmlns:svg="http://www.w3.org/2000/svg">
  <defs
     id="defs393" />
  <circle
     style="fill:#cccccc;fill-opacity:1"
     id="path117"
     cx="26"
     cy="26"
     r="26" />
  <path
     d="m 10.182107,36.033828 c 0.13,-0.8 0.62,-1.39 1.18,-1.94 1.049979,-1.02 2.069979,-2.07 3.109979,-3.1 0.51,-0.5 0.89,-0.54 1.47,-0.14 0.26,0.18 0.53,0.17 0.7,-0.02 0.19,-0.22 0.17,-0.44 0.01,-0.68 -0.42,-0.61 -0.39,-0.96 0.14,-1.49 0.66,-0.66 1.33,-1.33 1.99,-1.99 0.81,-0.81 1.680001,-0.81 2.480001,0 0.11,0.11 0.2,0.24 0.28,0.34 0.25,-0.24 0.45,-0.44 0.73,-0.72 -0.09,-0.06 -0.22,-0.12 -0.31,-0.21 -0.96,-0.95 -1.920001,-1.9 -2.870001,-2.87 -0.15,-0.15 -0.27,-0.2 -0.48,-0.13 -2.42,0.79 -5.05,0.09 -6.699969,-1.88 -1.72,-2.06 -1.99001,-4.37 -0.90001,-6.82 0.33,-0.73 1.059979,-0.85 1.629979,-0.28 1.07,1.06 2.13,2.13 3.19,3.19 0.21,0.21 0.44,0.37 0.76,0.31 0.51,-0.1 0.74,-0.64 0.47,-1.07 -0.07,-0.11 -0.17,-0.21 -0.26,-0.3 -1.02,-1.02 -2.04,-2.04 -3.06,-3.06 -0.69,-0.69 -0.56,-1.36997 0.32,-1.77997 3.83,-1.77 8.350001,0.73997 8.850001,4.91997 0.11,0.95 0.02,1.87 -0.26,2.78 -0.03,0.1 -0.03,0.26 0.03,0.33 1.07,1.09 2.15,2.17 3.24,3.26 0.09,-0.08 0.17,-0.14 0.24,-0.22 2.05,-2.05 4.1,-4.1 6.15,-6.14 0.14,-0.14 0.21,-0.28 0.18,-0.49 -0.05,-0.36 -0.08,-0.72 -0.12,-1.08 -0.05,-0.44 0.1,-0.78 0.45,-1.05 1.41,-1.09 2.81,-2.18997 4.22,-3.27997 0.48,-0.37 0.96,-0.34 1.39,0.08 1.02,1.02 2.04,2.03997 3.06,3.05997 0.41,0.41 0.45,0.9 0.09,1.36 -1.1,1.43 -2.22,2.85 -3.32,4.27 -0.24,0.31 -0.54,0.46 -0.94,0.43 -0.38,-0.03 -0.76,-0.05 -1.14,-0.06 -0.1,0 -0.23,0.04 -0.3,0.1 -2.15,2.14 -4.29,4.29 -6.43,6.43 0,0 0,0.02 -0.02,0.05 0.04,0.05 0.09,0.11 0.15,0.17 0.97,0.97 1.94,1.94 2.9,2.91 0.15,0.15 0.26,0.16 0.46,0.11 2.62,-0.76 4.91,-0.17 6.69,1.88 1.75,2.02 2,4.34 0.93,6.79 -0.34,0.77 -1.07,0.9 -1.67,0.3 -1.06,-1.05 -2.11,-2.12 -3.18,-3.16 -0.17,-0.16 -0.41,-0.29 -0.63,-0.33 -0.25,-0.04 -0.47,0.1 -0.61,0.34 -0.13,0.23 -0.14,0.47 0,0.7 0.07,0.12 0.17,0.23 0.27,0.33 1.03,1.03 2.06,2.06 3.08,3.09 0.67,0.67 0.52,1.36 -0.33,1.75 -3.68,1.68 -7.87,-0.48 -8.75,-4.33 -0.26,-1.12 -0.19,-2.23 0.15,-3.33 0.04,-0.11 0.03,-0.31 -0.04,-0.38 -1.03,-1.05 -2.08,-2.09 -3.13,-3.15 -0.2,0.22 -0.39,0.43 -0.64,0.71 0.09,0.07 0.23,0.15 0.34,0.27 0.68,0.7 0.69,1.59 0.01,2.29 -0.73,0.75 -1.47,1.48 -2.21,2.21 -0.42,0.41 -0.86,0.42 -1.33,0.07 -0.07,-0.05 -0.13,-0.1 -0.2,-0.14 -0.2,-0.11 -0.44,-0.11 -0.56,0.08 -0.1,0.15 -0.09,0.37 -0.1,0.56 0,0.06 0.07,0.12 0.11,0.18 0.41,0.55 0.38,0.96 -0.1,1.45 -1.060001,1.06 -2.120001,2.11 -3.170001,3.18 -0.54,0.55 -1.12,1 -1.89,1.14 h -0.62 c -0.75,-0.14 -1.33,-0.55 -1.85,-1.1 -0.71,-0.74 -1.43,-1.46 -2.159979,-2.17 -0.57,-0.55 -1.05,-1.13 -1.18,-1.94 v -0.62 z m 9.839979,-7.91 c -0.45,0.45 -0.88,0.9 -1.33,1.34 -0.13,0.13 -0.14,0.23 -0.1,0.4 0.49,1.79 -1.12,3.42 -2.93,2.94 -0.19,-0.05 -0.3,-0.02 -0.43,0.11 -0.94,0.95 -1.88,1.88 -2.82,2.82 -0.449969,0.45 -0.449969,0.76 0,1.21 0.89,0.89 1.78,1.78 2.67,2.67 0.45,0.45 0.76,0.45 1.21,0 0.89,-0.89 1.77,-1.79 2.67,-2.66 0.22,-0.22 0.34,-0.4 0.19,-0.71 -0.06,-0.11 -0.06,-0.26 -0.07,-0.39 -0.09,-1.71 1.470001,-2.92 3.120001,-2.44 0.09,0.03 0.23,0.04 0.28,-0.01 0.48,-0.46 0.95,-0.94 1.41,-1.4 -1.3,-1.3 -2.58,-2.57 -3.890001,-3.89 z m -7.66,-11.65 c -0.17,1.37 0.15,2.53 1.02,3.51 1.33,1.52 3.25,1.93 5.11,1.15 0.71,-0.3 0.96,-0.25 1.51,0.3 1.120001,1.12 2.250001,2.25 3.370001,3.37 0.08,0.08 0.16,0.15 0.2,0.19 0.35,-0.34 0.68,-0.66 1.05,-1.03 -0.07,-0.06 -0.18,-0.11 -0.25,-0.19 -1.15,-1.15 -2.3,-2.3 -3.46,-3.45 -0.36,-0.36 -0.48,-0.76 -0.27,-1.23 0.04,-0.08 0.07,-0.17 0.11,-0.26 1.06,-2.6 -0.44,-5.43 -3.190001,-6.01 -0.48,-0.1 -0.96,-0.15 -1.51,0 0.13,0.12 0.23,0.2 0.31,0.28 0.73,0.74 1.5,1.45 2.18,2.24 1.04,1.21 0.62,3.12 -0.78,3.87 -1.09,0.58 -2.26,0.4 -3.17,-0.5 -0.73,-0.72 -1.46,-1.45 -2.23,-2.23 z m 14.710001,12.09 c 0.09,0.07 0.19,0.14 0.27,0.22 1.12,1.12 2.24,2.25 3.37,3.37 0.36,0.36 0.48,0.76 0.26,1.23 -0.05,0.1 -0.09,0.21 -0.13,0.31 -1.04,2.56 0.54,5.46 3.27,5.96 0.46,0.08 0.92,0.14 1.42,0 -0.41,-0.41 -0.79,-0.78 -1.17,-1.16 -0.43,-0.44 -0.89,-0.86 -1.29,-1.33 -0.85,-1.02 -0.76,-2.52 0.18,-3.46 0.93,-0.94 2.48,-1.05 3.48,-0.17 0.78,0.69 1.49,1.45 2.23,2.18 0.08,0.08 0.16,0.15 0.26,0.25 0.02,-0.08 0.03,-0.13 0.04,-0.17 0.31,-1.98 -1.2,-4.19 -3.21,-4.69 -1.04,-0.26 -2.04,-0.19 -3.01,0.26 -0.53,0.25 -0.97,0.16 -1.37,-0.26 -0.53,-0.55 -1.08,-1.08 -1.62,-1.62 -0.65,-0.66 -1.31,-1.31 -1.96,-1.96 -0.34,0.34 -0.67,0.67 -1.04,1.05 z m -3.3,0.58 c 0.08,-0.07 0.15,-0.14 0.22,-0.21 2.76,-2.76 5.53,-5.53 8.29,-8.29 0.87,-0.87 1.74,-1.73 2.6,-2.61 0.27,-0.28 0.58,-0.42 0.97,-0.38 0.16,0.02 0.34,0 0.49,0.03 0.52,0.13 0.84,-0.07 1.15,-0.5 0.68,-0.95 1.43,-1.86 2.12,-2.75 -0.68,-0.68 -1.33,-1.34 -2,-2.01 -1.04,0.81 -2.09,1.63 -3.14,2.46 -0.07,0.05 -0.11,0.19 -0.1,0.28 0.02,0.32 0.03,0.64 0.09,0.95 0.09,0.5 -0.09,0.86 -0.44,1.21 -3.6,3.59 -7.19,7.18 -10.79,10.78 -0.08,0.08 -0.16,0.17 -0.23,0.24 0.27,0.28 0.51,0.53 0.77,0.79 z"
     fill="currentColor"
     id="path705"
     style="fill:#4d4d4d" />
</svg>
