<svg width="48" height="48" viewBox="0 0 48 48" fill="none" xmlns="http://www.w3.org/2000/svg">
<path d="M8.16002 34.02C8.29002 33.22 8.78002 32.63 9.34002 32.08C10.39 31.06 11.41 30.01 12.45 28.98C12.96 28.48 13.34 28.44 13.92 28.84C14.18 29.02 14.45 29.01 14.62 28.82C14.81 28.6 14.79 28.38 14.63 28.14C14.21 27.53 14.24 27.18 14.77 26.65C15.43 25.99 16.1 25.32 16.76 24.66C17.57 23.85 18.44 23.85 19.24 24.66C19.35 24.77 19.44 24.9 19.52 25C19.77 24.76 19.97 24.56 20.25 24.28C20.16 24.22 20.03 24.16 19.94 24.07C18.98 23.12 18.02 22.17 17.07 21.2C16.92 21.05 16.8 21 16.59 21.07C14.17 21.86 11.54 21.16 9.89003 19.19C8.17003 17.13 7.90002 14.82 8.99002 12.37C9.32002 11.64 10.05 11.52 10.62 12.09C11.69 13.15 12.75 14.22 13.81 15.28C14.02 15.49 14.25 15.65 14.57 15.59C15.08 15.49 15.31 14.95 15.04 14.52C14.97 14.41 14.87 14.31 14.78 14.22C13.76 13.2 12.74 12.18 11.72 11.16C11.03 10.47 11.16 9.79003 12.04 9.38003C15.87 7.61003 20.39 10.12 20.89 14.3C21 15.25 20.91 16.17 20.63 17.08C20.6 17.18 20.6 17.34 20.66 17.41C21.73 18.5 22.81 19.58 23.9 20.67C23.99 20.59 24.07 20.53 24.14 20.45C26.19 18.4 28.24 16.35 30.29 14.31C30.43 14.17 30.5 14.03 30.47 13.82C30.42 13.46 30.39 13.1 30.35 12.74C30.3 12.3 30.45 11.96 30.8 11.69C32.21 10.6 33.61 9.50003 35.02 8.41003C35.5 8.04003 35.98 8.07003 36.41 8.49003C37.43 9.51003 38.45 10.53 39.47 11.55C39.88 11.96 39.92 12.45 39.56 12.91C38.46 14.34 37.34 15.76 36.24 17.18C36 17.49 35.7 17.64 35.3 17.61C34.92 17.58 34.54 17.56 34.16 17.55C34.06 17.55 33.93 17.59 33.86 17.65C31.71 19.79 29.57 21.94 27.43 24.08C27.43 24.08 27.43 24.1 27.41 24.13C27.45 24.18 27.5 24.24 27.56 24.3C28.53 25.27 29.5 26.24 30.46 27.21C30.61 27.36 30.72 27.37 30.92 27.32C33.54 26.56 35.83 27.15 37.61 29.2C39.36 31.22 39.61 33.54 38.54 35.99C38.2 36.76 37.47 36.89 36.87 36.29C35.81 35.24 34.76 34.17 33.69 33.13C33.52 32.97 33.28 32.84 33.06 32.8C32.81 32.76 32.59 32.9 32.45 33.14C32.32 33.37 32.31 33.61 32.45 33.84C32.52 33.96 32.62 34.07 32.72 34.17C33.75 35.2 34.78 36.23 35.8 37.26C36.47 37.93 36.32 38.62 35.47 39.01C31.79 40.69 27.6 38.53 26.72 34.68C26.46 33.56 26.53 32.45 26.87 31.35C26.91 31.24 26.9 31.04 26.83 30.97C25.8 29.92 24.75 28.88 23.7 27.82C23.5 28.04 23.31 28.25 23.06 28.53C23.15 28.6 23.29 28.68 23.4 28.8C24.08 29.5 24.09 30.39 23.41 31.09C22.68 31.84 21.94 32.57 21.2 33.3C20.78 33.71 20.34 33.72 19.87 33.37C19.8 33.32 19.74 33.27 19.67 33.23C19.47 33.12 19.23 33.12 19.11 33.31C19.01 33.46 19.02 33.68 19.01 33.87C19.01 33.93 19.08 33.99 19.12 34.05C19.53 34.6 19.5 35.01 19.02 35.5C17.96 36.56 16.9 37.61 15.85 38.68C15.31 39.23 14.73 39.68 13.96 39.82H13.34C12.59 39.68 12.01 39.27 11.49 38.72C10.78 37.98 10.06 37.26 9.33002 36.55C8.76002 36 8.28002 35.42 8.15002 34.61V33.99L8.16002 34.02ZM18 26.11C17.55 26.56 17.12 27.01 16.67 27.45C16.54 27.58 16.53 27.68 16.57 27.85C17.06 29.64 15.45 31.27 13.64 30.79C13.45 30.74 13.34 30.77 13.21 30.9C12.27 31.85 11.33 32.78 10.39 33.72C9.94003 34.17 9.94003 34.48 10.39 34.93C11.28 35.82 12.17 36.71 13.06 37.6C13.51 38.05 13.82 38.05 14.27 37.6C15.16 36.71 16.04 35.81 16.94 34.94C17.16 34.72 17.28 34.54 17.13 34.23C17.07 34.12 17.07 33.97 17.06 33.84C16.97 32.13 18.53 30.92 20.18 31.4C20.27 31.43 20.41 31.44 20.46 31.39C20.94 30.93 21.41 30.45 21.87 29.99C20.57 28.69 19.29 27.42 17.98 26.1L18 26.11ZM10.34 14.46C10.17 15.83 10.49 16.99 11.36 17.97C12.69 19.49 14.61 19.9 16.47 19.12C17.18 18.82 17.43 18.87 17.98 19.42C19.1 20.54 20.23 21.67 21.35 22.79C21.43 22.87 21.51 22.94 21.55 22.98C21.9 22.64 22.23 22.32 22.6 21.95C22.53 21.89 22.42 21.84 22.35 21.76C21.2 20.61 20.05 19.46 18.89 18.31C18.53 17.95 18.41 17.55 18.62 17.08C18.66 17 18.69 16.91 18.73 16.82C19.79 14.22 18.29 11.39 15.54 10.81C15.06 10.71 14.58 10.66 14.03 10.81C14.16 10.93 14.26 11.01 14.34 11.09C15.07 11.83 15.84 12.54 16.52 13.33C17.56 14.54 17.14 16.45 15.74 17.2C14.65 17.78 13.48 17.6 12.57 16.7C11.84 15.98 11.11 15.25 10.34 14.47V14.46ZM25.05 26.55C25.14 26.62 25.24 26.69 25.32 26.77C26.44 27.89 27.56 29.02 28.69 30.14C29.05 30.5 29.17 30.9 28.95 31.37C28.9 31.47 28.86 31.58 28.82 31.68C27.78 34.24 29.36 37.14 32.09 37.64C32.55 37.72 33.01 37.78 33.51 37.64C33.1 37.23 32.72 36.86 32.34 36.48C31.91 36.04 31.45 35.62 31.05 35.15C30.2 34.13 30.29 32.63 31.23 31.69C32.16 30.75 33.71 30.64 34.71 31.52C35.49 32.21 36.2 32.97 36.94 33.7C37.02 33.78 37.1 33.85 37.2 33.95C37.22 33.87 37.23 33.82 37.24 33.78C37.55 31.8 36.04 29.59 34.03 29.09C32.99 28.83 31.99 28.9 31.02 29.35C30.49 29.6 30.05 29.51 29.65 29.09C29.12 28.54 28.57 28.01 28.03 27.47C27.38 26.81 26.72 26.16 26.07 25.51C25.73 25.85 25.4 26.18 25.03 26.56L25.05 26.55ZM21.75 27.13C21.83 27.06 21.9 26.99 21.97 26.92C24.73 24.16 27.5 21.39 30.26 18.63C31.13 17.76 32 16.9 32.86 16.02C33.13 15.74 33.44 15.6 33.83 15.64C33.99 15.66 34.17 15.64 34.32 15.67C34.84 15.8 35.16 15.6 35.47 15.17C36.15 14.22 36.9 13.31 37.59 12.42C36.91 11.74 36.26 11.08 35.59 10.41C34.55 11.22 33.5 12.04 32.45 12.87C32.38 12.92 32.34 13.06 32.35 13.15C32.37 13.47 32.38 13.79 32.44 14.1C32.53 14.6 32.35 14.96 32 15.31C28.4 18.9 24.81 22.49 21.21 26.09C21.13 26.17 21.05 26.26 20.98 26.33C21.25 26.61 21.49 26.86 21.75 27.12V27.13Z" fill="currentColor"/>
</svg>
