<svg width="48" height="48" viewBox="0 0 48 48" fill="none" xmlns="http://www.w3.org/2000/svg">
<path d="M26.88 15.61C26.81 17.99 26.22 20.03 25.39 22.01C24.71 23.63 23.88 25.17 22.63 26.44C22.3 26.77 22.18 27.09 22.18 27.55C22.2 30.59 22.18 33.62 22.2 36.66C22.21 38.36 21.18 39.37 20.21 39.73C18.14 40.5 15.98 39.01 16 36.7C16.03 33.58 16 30.46 16.01 27.34C16.01 27.02 15.92 26.8 15.69 26.57C14.32 25.2 13.42 23.52 12.7 21.75C12.11 20.32 11.7 18.83 11.44 17.3C10.74 13.07 13.18 9.49002 16.78 8.36002C21.21 6.97002 25.85 9.74002 26.72 14.3C26.81 14.8 26.85 15.31 26.88 15.61ZM19.02 26.37C19.02 26.37 19.09 26.37 19.13 26.36C19.17 26.26 19.23 26.16 19.26 26.05C19.57 24.7 19.94 23.35 20.16 21.98C20.39 20.54 20.5 19.07 20.62 17.61C20.78 15.73 20.73 13.85 20.31 12C20.13 11.21 19.92 10.41 19.4 9.76002C19.16 9.46002 19.02 9.44002 18.84 9.76002C18.53 10.31 18.24 10.89 18.06 11.49C17.48 13.51 17.48 15.57 17.6 17.65C17.73 19.91 18 22.14 18.48 24.35C18.63 25.03 18.84 25.7 19.03 26.37H19.02ZM17.22 26.03C17.22 26.03 17.25 25.99 17.26 25.97C17.02 24.75 16.74 23.53 16.55 22.3C16.22 20.17 16.02 18.03 16.01 15.87C16.01 14.54 16.08 13.22 16.39 11.92C16.55 11.25 16.74 10.59 16.92 9.91002C16.84 9.94002 16.75 9.96002 16.66 10C15.37 10.56 14.36 11.44 13.66 12.66C12.82 14.11 12.68 15.66 12.97 17.29C13.42 19.86 14.33 22.25 15.82 24.39C16.23 24.97 16.74 25.48 17.21 26.02L17.22 26.03ZM21.23 9.89002C21.27 10 21.29 10.05 21.3 10.1C21.87 11.6 22.1 13.16 22.16 14.74C22.22 16.41 22.16 18.08 21.95 19.74C21.76 21.2 21.55 22.66 21.32 24.12C21.22 24.74 21.06 25.34 20.92 25.95C21.31 25.64 21.67 25.31 21.97 24.94C23.4 23.17 24.27 21.13 24.87 18.96C25.23 17.66 25.51 16.34 25.31 14.98C24.98 12.68 23.72 11.06 21.64 10.06C21.53 10.01 21.41 9.97002 21.23 9.91002V9.89002ZM17.55 27.9C17.54 28 17.53 28.04 17.53 28.09C17.53 31.03 17.53 33.97 17.53 36.91C17.53 37.44 17.77 37.84 18.19 38.14C18.7 38.49 19.25 38.53 19.8 38.26C20.36 37.98 20.66 37.51 20.66 36.86C20.66 33.97 20.66 31.08 20.66 28.19C20.66 28.11 20.64 28.04 20.63 27.92C19.59 28.34 18.58 28.35 17.53 27.91L17.55 27.9Z" fill="currentColor"/>
<path d="M32.18 18.2V17.79C32.18 15.31 32.18 12.84 32.18 10.36C32.18 9.12003 32.92 8.24003 34.14 8.02003C35.33 7.81003 36.61 8.84003 36.66 10.05C36.66 10.24 36.67 10.43 36.67 10.63C36.67 20.05 36.67 29.47 36.67 38.89C36.67 39.01 36.67 39.14 36.67 39.26C36.64 39.88 36.05 40.2 35.53 39.84C34.83 39.36 34.13 38.88 33.5 38.32C31.29 36.32 29.91 33.82 29.35 30.9C29.21 30.15 29.13 29.38 29.13 28.61C29.11 25.43 29.12 22.25 29.13 19.08C29.13 18.49 29.4 18.21 30 18.2C30.71 18.19 31.42 18.2 32.19 18.2H32.18ZM35.21 37.88V19.7H30.58C30.58 19.8 30.57 19.88 30.57 19.96C30.57 22.77 30.54 25.57 30.59 28.38C30.61 29.4 30.74 30.43 30.98 31.42C31.62 34.04 33.06 36.17 35.21 37.89V37.88ZM35.24 18.18C35.24 17.89 35.24 17.63 35.24 17.37C35.24 15.03 35.24 12.69 35.24 10.35C35.24 9.83003 34.93 9.48003 34.46 9.46003C33.94 9.44003 33.62 9.82003 33.62 10.46C33.62 12.92 33.62 15.39 33.62 17.85C33.62 17.95 33.63 18.05 33.64 18.17H35.24V18.18Z" fill="currentColor"/>
</svg>
