<?xml version="1.0" encoding="UTF-8" standalone="no"?>
<svg
   viewBox="0 0 52.000001 52"
   fill="none"
   version="1.1"
   id="svg244"
   xml:space="preserve"
   xmlns="http://www.w3.org/2000/svg"
   xmlns:svg="http://www.w3.org/2000/svg"><defs
     id="defs248" /><circle
     style="fill:#cccccc;fill-opacity:1"
     id="path117"
     cx="26"
     cy="26"
     r="26" /><g
     id="g252"
     transform="translate(2.004968,2.0082066)"
     style="fill:#4d4d4d"><path
       d="m 26.88,15.61 c -0.07,2.38 -0.66,4.42 -1.49,6.4 -0.68,1.62 -1.51,3.16 -2.76,4.43 -0.33,0.33 -0.45,0.65 -0.45,1.11 0.02,3.04 0,6.07 0.02,9.11 0.01,1.7 -1.02,2.71 -1.99,3.07 -2.07,0.77 -4.23,-0.72 -4.21,-3.03 0.03,-3.12 0,-6.24 0.01,-9.36 0,-0.32 -0.09,-0.54 -0.32,-0.77 -1.37,-1.37 -2.27,-3.05 -2.99,-4.82 -0.59,-1.43 -1,-2.92 -1.26,-4.45 -0.7,-4.23 1.74,-7.80998 5.34,-8.93998 4.43,-1.39 9.07,1.38 9.94,5.93998 0.09,0.5 0.13,1.01 0.16,1.31 z m -7.86,10.76 c 0,0 0.07,0 0.11,-0.01 0.04,-0.1 0.1,-0.2 0.13,-0.31 0.31,-1.35 0.68,-2.7 0.9,-4.07 0.23,-1.44 0.34,-2.91 0.46,-4.37 0.16,-1.88 0.11,-3.76 -0.31,-5.61 -0.18,-0.79 -0.39,-1.59 -0.91,-2.23998 -0.24,-0.3 -0.38,-0.32 -0.56,0 C 18.53,10.31 18.24,10.89 18.06,11.49 c -0.58,2.02 -0.58,4.08 -0.46,6.16 0.13,2.26 0.4,4.49 0.88,6.7 0.15,0.68 0.36,1.35 0.55,2.02 z m -1.8,-0.34 c 0,0 0.03,-0.04 0.04,-0.06 -0.24,-1.22 -0.52,-2.44 -0.71,-3.67 -0.33,-2.13 -0.53,-4.27 -0.54,-6.43 0,-1.33 0.07,-2.65 0.38,-3.95 0.16,-0.67 0.35,-1.33 0.53,-2.00998 -0.08,0.03 -0.17,0.05 -0.26,0.08998 -1.29,0.56 -2.3,1.44 -3,2.66 -0.84,1.45 -0.98,3 -0.69,4.63 0.45,2.57 1.36,4.96 2.85,7.1 0.41,0.58 0.92,1.09 1.39,1.63 z M 21.23,9.89002 C 21.27,10 21.29,10.05 21.3,10.1 c 0.57,1.5 0.8,3.06 0.86,4.64 0.06,1.67 0,3.34 -0.21,5 -0.19,1.46 -0.4,2.92 -0.63,4.38 -0.1,0.62 -0.26,1.22 -0.4,1.83 0.39,-0.31 0.75,-0.64 1.05,-1.01 1.43,-1.77 2.3,-3.81 2.9,-5.98 0.36,-1.3 0.64,-2.62 0.44,-3.98 -0.33,-2.3 -1.59,-3.92 -3.67,-4.92 C 21.53,10.01 21.41,9.97002 21.23,9.91002 Z M 17.55,27.9 c -0.01,0.1 -0.02,0.14 -0.02,0.19 0,2.94 0,5.88 0,8.82 0,0.53 0.24,0.93 0.66,1.23 0.51,0.35 1.06,0.39 1.61,0.12 0.56,-0.28 0.86,-0.75 0.86,-1.4 0,-2.89 0,-5.78 0,-8.67 0,-0.08 -0.02,-0.15 -0.03,-0.27 -1.04,0.42 -2.05,0.43 -3.1,-0.01 z"
       fill="currentColor"
       id="path240"
       style="fill:#4d4d4d" /><path
       d="m 32.18,18.2 v -0.41 c 0,-2.48 0,-4.95 0,-7.43 0,-1.23997 0.74,-2.11997 1.96,-2.33997 1.19,-0.21 2.47,0.82 2.52,2.02997 0,0.19 0.01,0.38 0.01,0.58 0,9.42 0,18.84 0,28.26 0,0.12 0,0.25 0,0.37 -0.03,0.62 -0.62,0.94 -1.14,0.58 -0.7,-0.48 -1.4,-0.96 -2.03,-1.52 -2.21,-2 -3.59,-4.5 -4.15,-7.42 -0.14,-0.75 -0.22,-1.52 -0.22,-2.29 -0.02,-3.18 -0.01,-6.36 0,-9.53 0,-0.59 0.27,-0.87 0.87,-0.88 0.71,-0.01 1.42,0 2.19,0 z m 3.03,19.68 V 19.7 h -4.63 c 0,0.1 -0.01,0.18 -0.01,0.26 0,2.81 -0.03,5.61 0.02,8.42 0.02,1.02 0.15,2.05 0.39,3.04 0.64,2.62 2.08,4.75 4.23,6.47 z m 0.03,-19.7 c 0,-0.29 0,-0.55 0,-0.81 0,-2.34 0,-4.68 0,-7.02 0,-0.51997 -0.31,-0.86997 -0.78,-0.88997 -0.52,-0.02 -0.84,0.36 -0.84,0.99997 0,2.46 0,4.93 0,7.39 0,0.1 0.01,0.2 0.02,0.32 h 1.6 z"
       fill="currentColor"
       id="path242"
       style="fill:#4d4d4d" /></g></svg>
