<svg width="48" height="48" viewBox="0 0 48 48" fill="none" xmlns="http://www.w3.org/2000/svg">
<g id="Usage=turismikool">
<path id="Vector" d="M41.93 23.94C41.76 24.29 41.47 24.5 41.13 24.67C38.18 26.12 35.23 27.59 32.28 29.05C32.1 29.14 32.02 29.23 32.02 29.45C32.03 30.67 32.03 31.9 32.02 33.12C32.02 33.33 32.09 33.42 32.28 33.5C33.63 34.04 34.48 35.38 34.37 36.75C34.24 38.28 33.24 39.44 31.77 39.78C30.34 40.1 28.82 39.38 28.16 38.04C28.03 37.76 27.88 37.71 27.6 37.71C23.32 37.71 19.04 37.71 14.76 37.71C13.03 37.71 11.57 36.6 11.15 34.98C10.55 32.64 12.3 30.39 14.75 30.39C17.47 30.39 20.18 30.39 22.9 30.39C23.14 30.39 23.38 30.38 23.61 30.32C24.32 30.12 24.81 29.41 24.75 28.69C24.68 27.89 24.11 27.28 23.34 27.19C23.2 27.17 23.05 27.17 22.91 27.17C20.92 27.17 18.93 27.16 16.94 27.17C16.4 27.17 16.05 26.98 15.78 26.51C14.26 23.91 12.72 21.32 11.2 18.72C10.01 16.68 9.72 14.54 10.61 12.32C11.72 9.54004 14.65 7.86004 17.6 8.25004C20.58 8.65004 22.95 11 23.33 13.96C23.55 15.68 23.15 17.27 22.27 18.75C21.03 20.81 19.8 22.87 18.57 24.93C18.51 25.03 18.45 25.14 18.36 25.3C18.53 25.3 18.65 25.3 18.77 25.3C20.31 25.3 21.86 25.27 23.4 25.33C25.22 25.41 26.64 26.99 26.62 28.8C26.6 30.67 25.12 32.22 23.26 32.24C20.48 32.27 17.7 32.24 14.93 32.26C14.67 32.26 14.41 32.28 14.16 32.36C13.33 32.61 12.79 33.46 12.91 34.28C13.05 35.21 13.76 35.86 14.7 35.86C18.34 35.86 21.98 35.86 25.61 35.86C26.28 35.86 26.96 35.86 27.63 35.86C27.82 35.86 27.89 35.8 27.95 35.62C28.27 34.61 28.92 33.9 29.91 33.51C30.13 33.42 30.17 33.31 30.17 33.1C30.17 28.7 30.17 24.29 30.17 19.89C30.17 19.3 30.43 18.92 30.93 18.84C31.11 18.81 31.33 18.84 31.5 18.91C34.76 20.2 38.02 21.51 41.27 22.81C41.59 22.94 41.78 23.18 41.93 23.47V23.97V23.94ZM16.69 24.36C16.74 24.29 16.77 24.26 16.79 24.23C18.11 22.03 19.43 19.82 20.74 17.62C21.16 16.92 21.4 16.16 21.49 15.34C21.73 13.03 20.32 10.89 18.11 10.24C15.9 9.58004 13.52 10.58 12.49 12.66C11.64 14.37 11.83 16.06 12.76 17.68C13.68 19.29 14.64 20.88 15.58 22.47C15.95 23.09 16.31 23.72 16.7 24.38L16.69 24.36ZM32.05 21.11V27.09C34.28 25.98 36.47 24.89 38.72 23.78C36.47 22.88 34.27 22 32.05 21.11ZM29.67 36.54C29.67 37.33 30.3 37.97 31.08 37.97C31.86 37.97 32.53 37.31 32.52 36.53C32.52 35.75 31.87 35.12 31.09 35.12C30.3 35.12 29.67 35.75 29.67 36.54Z" fill="currentColor"/>
<path id="Vector_2" d="M16.7 17.87C15.07 17.87 13.75 16.57 13.75 14.94C13.75 13.31 15.05 11.99 16.68 11.99C18.31 11.99 19.63 13.29 19.64 14.92C19.65 16.54 18.33 17.87 16.71 17.88L16.7 17.87ZM16.7 13.85C16.09 13.85 15.61 14.31 15.61 14.92C15.61 15.53 16.09 16.01 16.69 16.01C17.28 16.01 17.76 15.54 17.77 14.95C17.79 14.35 17.3 13.86 16.7 13.85Z" fill="currentColor"/>
</g>
</svg>
