<svg width="194" height="254" viewBox="0 0 194 254" fill="none" xmlns="http://www.w3.org/2000/svg">
<g clip-path="url(#clip0_79_873)">
<path d="M5.47471 253.493C5.14994 253.282 4.83181 253.044 4.48716 252.865C1.12021 251.119 -0.5964 247.805 0.179058 244.525C1.01417 240.98 3.91716 238.698 7.76794 238.652C11.7181 238.612 15.6617 238.645 19.8571 238.645C19.8571 235.966 19.8439 233.519 19.8571 231.065C19.9234 221.131 25.5969 213.003 34.9554 209.716C36.6256 209.127 36.8178 208.505 36.4732 206.891C31.0847 181.653 43.2667 155.653 66.1858 143.682C74.3447 139.422 81.6088 134.164 87.4811 126.757C82.1457 120.024 75.6901 114.746 68.088 110.896C58.2059 105.896 50.0801 98.9449 44.2211 89.52C35.923 76.1664 33.3448 61.7414 36.5129 46.3242C36.5991 45.9208 36.672 45.5173 36.725 45.1072C36.7449 44.9551 36.672 44.7898 36.6123 44.4855C22.389 39.7565 18.5647 28.9229 20.0427 14.8616C15.6485 14.8616 11.5458 14.9476 7.45643 14.8417C2.02823 14.7028 -1.48453 9.39844 0.629752 4.57025C1.81614 1.85191 3.9967 0.357153 6.94609 0.0462966C7.68178 -0.0330709 8.43073 0.0198408 9.17968 0.0198408C67.5578 0.0198408 125.936 0.0198408 184.307 0.0198408C185.381 0.0198408 186.481 -0.033071 187.515 0.18519C191.194 0.939182 193.725 4.28585 193.48 7.9103C193.228 11.6604 190.199 14.7095 186.335 14.8285C182.22 14.9542 178.097 14.855 173.656 14.855C173.656 17.2228 173.656 19.4186 173.656 21.6144C173.636 32.6598 168.129 40.4312 157.71 44.1152C157.411 44.221 157.133 44.3863 156.769 44.5649C157.133 46.9658 157.584 49.3071 157.842 51.6617C160.553 76.259 148.603 98.7267 126.532 110.288C118.97 114.25 112.263 119.197 106.815 125.784C106.602 126.036 106.417 126.307 106.079 126.757C110.228 132.147 115.298 136.539 121.078 140.137C123.245 141.486 125.532 142.65 127.778 143.88C150.717 156.427 162.376 181.805 156.948 207.374C156.848 207.85 156.822 208.34 156.735 209.021C162.952 210.88 167.764 214.471 170.979 220.133C174.22 225.84 173.643 232.084 173.67 238.652C177.739 238.652 181.749 238.652 185.759 238.652C188.523 238.652 190.743 239.75 192.274 242.045C194.6 245.53 193.513 250.2 189.908 252.402C189.291 252.779 188.675 253.136 188.052 253.507H5.47471V253.493ZM52.2806 45.1535C50.0868 51.7344 49.7288 58.3682 50.5838 65.1806C51.008 68.5273 52.1348 70.9216 55.621 71.8277C56.8869 72.1584 58.0534 72.8528 59.2862 73.3092C75.5642 79.3147 92.379 80.816 109.532 79.0369C120.103 77.939 130.35 75.4984 139.96 70.8091C140.822 70.3858 141.863 69.5525 142.075 68.7191C144.109 60.8022 143.818 52.9448 141.233 45.1602H52.2806V45.1535ZM141.359 208.36C141.829 206.435 142.366 204.616 142.698 202.758C143.029 200.899 143.049 198.981 143.387 197.123C143.798 194.854 142.85 193.644 140.789 192.863C138.171 191.878 135.679 190.542 133.041 189.616C114.536 183.147 95.5936 182.261 76.3794 185.436C67.7964 186.858 59.5049 189.305 51.7967 193.445C51.0809 193.829 50.153 194.841 50.2061 195.482C50.5772 199.788 51.187 204.067 51.7172 208.36H141.352H141.359ZM34.7565 238.486H158.777C158.777 236.277 158.777 234.234 158.777 232.183C158.77 226.079 155.973 223.301 149.829 223.301C114.463 223.301 79.0968 223.301 43.724 223.301C43.1474 223.301 42.5641 223.281 41.9875 223.314C38.0174 223.526 34.9487 226.482 34.7764 230.417C34.6571 233.043 34.7565 235.675 34.7565 238.493V238.486ZM158.757 15.0402H34.7499C34.7499 17.0971 34.7499 18.9887 34.7499 20.8737C34.7499 27.5472 37.3878 30.2126 43.9825 30.2126C79.183 30.2126 114.384 30.2126 149.584 30.2126C150.326 30.2126 151.075 30.2457 151.811 30.1861C155.523 29.8885 158.512 27.0048 158.724 23.301C158.876 20.6025 158.757 17.8842 158.757 15.0402ZM96.7468 138.854C89.6417 146.942 81.231 152.644 72.0647 157.426C65.2513 160.984 60.1081 166.44 56.1512 172.995C55.674 173.782 55.3161 174.642 54.7793 175.733C82.9542 166.52 110.705 166.54 138.655 175.369C136.878 172.367 135.076 169.509 132.961 166.903C129.495 162.624 125.22 159.231 120.302 156.744C111.447 152.273 103.58 146.513 96.7534 138.854H96.7468ZM128.09 91.4976C128.01 91.3058 127.931 91.114 127.858 90.9288C107.126 95.8231 86.3941 95.7901 65.4899 91.3124C76.0083 98.9582 88.3957 103.932 96.6872 114.838C104.276 105.784 113.814 100.109 123.623 94.7715C125.227 93.8985 126.605 92.6021 128.09 91.4976Z" fill="black"/>
</g>
<defs>
<clipPath id="clip0_79_873">
<rect width="193.095" height="253.493" fill="white"/>
</clipPath>
</defs>
</svg>
