<svg width="255" height="194" viewBox="0 0 255 194" fill="none" xmlns="http://www.w3.org/2000/svg">
<g clip-path="url(#clip0_79_876)">
<path d="M254.294 187.819C254.082 188.144 253.844 188.462 253.666 188.807C251.92 192.174 248.606 193.89 245.326 193.115C241.78 192.28 239.499 189.377 239.452 185.526C239.413 181.576 239.446 177.632 239.446 173.437C236.767 173.437 234.32 173.45 231.866 173.437C221.932 173.371 213.803 167.697 210.516 158.339C209.928 156.668 209.306 156.476 207.692 156.821C182.453 162.209 156.454 150.027 144.482 127.108C140.223 118.949 134.965 111.685 127.557 105.813C120.824 111.148 115.546 117.604 111.697 125.206C106.697 135.088 99.7455 143.214 90.3206 149.073C76.9671 157.371 62.542 159.949 47.1248 156.781C46.7214 156.695 46.3179 156.622 45.9079 156.569C45.7557 156.549 45.5904 156.622 45.2862 156.682C40.5572 170.905 29.7235 174.729 15.6622 173.251C15.6622 177.646 15.7482 181.748 15.6424 185.838C15.5035 191.266 10.1991 194.779 5.37087 192.664C2.65253 191.478 1.15777 189.297 0.846917 186.348C0.76755 185.612 0.820461 184.863 0.820461 184.114C0.820459 125.736 0.820456 67.3583 0.820454 8.98682C0.820454 7.91312 0.767542 6.81287 0.985803 5.77893C1.73979 2.10046 5.08646 -0.431366 8.71091 -0.186142C12.461 0.0657191 15.5101 3.09465 15.6291 6.95868C15.7548 11.0746 15.6556 15.1971 15.6556 19.6378C18.0234 19.6378 20.2192 19.6378 22.4151 19.6378C33.4604 19.6576 41.2318 25.1654 44.9158 35.5843C45.0216 35.8826 45.1869 36.161 45.3655 36.5255C47.7664 36.161 50.1077 35.7103 52.4623 35.4518C77.0596 32.741 99.5273 44.691 111.088 66.7617C115.05 74.3241 119.998 81.0315 126.585 86.4796C126.836 86.6917 127.108 86.8773 127.557 87.2153C132.948 83.0662 137.339 77.996 140.937 72.2165C142.287 70.0492 143.451 67.7626 144.681 65.5157C157.228 42.5767 182.605 30.9183 208.175 36.3465C208.651 36.446 209.141 36.4725 209.822 36.5586C211.68 30.3417 215.272 25.5299 220.933 22.3154C226.641 19.0744 232.885 19.651 239.452 19.6245C239.452 15.555 239.452 11.5452 239.452 7.53531C239.452 4.7715 240.55 2.55115 242.845 1.02013C246.331 -1.30625 251 -0.21928 253.203 3.38627C253.58 4.00266 253.937 4.61904 254.307 5.24205L254.307 187.819L254.294 187.819ZM45.9542 141.014C52.5351 143.207 59.1689 143.565 65.9813 142.71C69.3279 142.286 71.7222 141.159 72.6283 137.673C72.959 136.407 73.6534 135.241 74.1098 134.008C80.1153 117.73 81.6167 100.915 79.8375 83.7622C78.7396 73.1908 76.299 62.9441 71.6097 53.3337C71.1864 52.4721 70.3531 51.4315 69.5197 51.2194C61.6028 49.1847 53.7454 49.4763 45.9608 52.0612L45.9608 141.014L45.9542 141.014ZM209.16 51.9352C207.236 51.4647 205.417 50.9278 203.558 50.5964C201.7 50.265 199.782 50.2452 197.923 49.9071C195.655 49.4962 194.444 50.444 193.664 52.5052C192.678 55.1232 191.342 57.6153 190.416 60.2532C183.948 78.7581 183.062 97.7005 186.236 116.915C187.658 125.498 190.106 133.789 194.246 141.497C194.63 142.213 195.641 143.141 196.283 143.088C200.589 142.717 204.868 142.107 209.16 141.577L209.16 51.9419L209.16 51.9352ZM239.287 158.538L239.287 34.5173C237.078 34.5173 235.034 34.5173 232.984 34.5173C226.879 34.5239 224.101 37.3208 224.101 43.4648C224.101 78.8311 224.101 114.197 224.101 149.57C224.101 150.147 224.081 150.73 224.115 151.307C224.326 155.277 227.283 158.345 231.218 158.518C233.844 158.637 236.476 158.538 239.294 158.538L239.287 158.538ZM15.8408 34.5372L15.8408 158.544C17.8977 158.544 19.7893 158.544 21.6743 158.544C28.3478 158.544 31.0132 155.906 31.0132 149.312C31.0132 114.111 31.0132 78.9106 31.0132 43.7101C31.0132 42.9678 31.0463 42.2188 30.9868 41.4831C30.6891 37.7715 27.8054 34.7824 24.1016 34.5703C21.4031 34.4179 18.6848 34.5372 15.8408 34.5372ZM139.654 96.5473C147.743 103.652 153.444 112.063 158.226 121.229C161.785 128.043 167.241 133.186 173.796 137.143C174.583 137.62 175.442 137.978 176.534 138.515C167.32 110.34 167.34 82.589 176.17 54.6394C173.167 56.4157 170.31 58.2185 167.704 60.3327C163.425 63.7991 160.032 68.0741 157.545 72.9919C153.074 81.8467 147.313 89.714 139.654 96.5407L139.654 96.5473ZM92.2982 65.2042C92.1064 65.2837 91.9146 65.3633 91.7294 65.4362C96.6237 86.1681 96.5907 106.9 92.113 127.804C99.7588 117.286 104.732 104.898 115.639 96.6069C106.584 89.0181 100.91 79.4806 95.5721 69.6714C94.6991 68.0674 93.4027 66.6888 92.2982 65.2042Z" fill="black"/>
</g>
<defs>
<clipPath id="clip0_79_876">
<rect width="193.095" height="253.493" fill="white" transform="translate(0.800644 193.294) rotate(-90)"/>
</clipPath>
</defs>
</svg>
