<svg width="194" height="254" viewBox="0 0 194 254" fill="none" xmlns="http://www.w3.org/2000/svg">
<g clip-path="url(#clip0_79_880)">
<path d="M187.62 -4.52973e-05C187.945 0.211609 188.263 0.449692 188.608 0.628266C191.975 2.37436 193.691 5.68796 192.916 8.96849C192.081 12.5136 189.178 14.7954 185.327 14.8417C181.377 14.8814 177.433 14.8483 173.238 14.8483C173.238 17.5269 173.251 19.9741 173.238 22.4279C173.171 32.3621 167.498 40.4907 158.139 43.7778C156.469 44.3664 156.277 44.9881 156.622 46.6019C162.01 71.8409 149.828 97.8403 126.909 109.812C118.75 114.071 111.486 119.329 105.614 126.737C110.949 133.47 117.405 138.748 125.007 142.597C134.889 147.597 143.015 154.548 148.874 163.973C157.172 177.327 159.75 191.752 156.582 207.169C156.496 207.573 156.423 207.976 156.37 208.386C156.35 208.538 156.423 208.704 156.482 209.008C170.706 213.737 174.53 224.571 173.052 238.632C177.446 238.632 181.549 238.546 185.638 238.652C191.067 238.791 194.579 244.095 192.465 248.923C191.279 251.641 189.098 253.136 186.149 253.447C185.413 253.526 184.664 253.474 183.915 253.474C125.537 253.474 67.1589 253.474 8.78748 253.474C7.71378 253.474 6.61353 253.526 5.57959 253.308C1.90112 252.554 -0.630707 249.208 -0.385483 245.583C-0.133622 241.833 2.89531 238.784 6.75934 238.665C10.8752 238.539 14.9978 238.638 19.4384 238.638C19.4384 236.271 19.4384 234.075 19.4384 231.879C19.4583 220.834 24.966 213.062 35.385 209.378C35.6833 209.272 35.9616 209.107 36.3262 208.929C35.9616 206.528 35.5109 204.186 35.2525 201.832C32.5417 177.234 44.4917 154.767 66.5624 143.206C74.1248 139.244 80.8322 134.297 86.2802 127.709C86.4923 127.458 86.6779 127.187 87.0159 126.737C82.8669 121.346 77.7966 116.955 72.0171 113.357C69.8498 112.007 67.5632 110.843 65.3164 109.613C42.3774 97.0665 30.719 71.6887 36.1472 46.1191C36.2466 45.6429 36.2731 45.1535 36.3593 44.4723C30.1424 42.6137 25.3306 39.0224 22.1161 33.3608C18.875 27.653 19.4517 21.4094 19.4252 14.8417C15.3556 14.8417 11.3458 14.8417 7.33596 14.8417C4.57215 14.8417 2.3518 13.7438 0.82078 11.4487C-1.50561 7.96318 -0.418631 3.29372 3.18691 1.09126C3.80331 0.71428 4.41969 0.357118 5.0427 -0.013274L187.62 -0.0132899L187.62 -4.52973e-05ZM140.814 208.34C143.008 201.759 143.366 195.125 142.511 188.313C142.087 184.966 140.96 182.572 137.474 181.666C136.208 181.335 135.041 180.641 133.809 180.184C117.531 174.179 100.716 172.677 83.5628 174.457C72.9914 175.554 62.7448 177.995 53.1344 182.684C52.2728 183.108 51.2322 183.941 51.0201 184.774C48.9853 192.691 49.277 200.549 51.8618 208.333L140.814 208.333L140.814 208.34ZM51.7359 45.1337C51.2653 47.0583 50.7285 48.8772 50.3971 50.7357C50.0657 52.5942 50.0458 54.5123 49.7078 56.3708C49.2969 58.6394 50.2446 59.8497 52.3059 60.6302C54.9239 61.6157 57.416 62.9517 60.0538 63.8776C78.5588 70.3461 97.5012 71.2324 116.715 68.0577C125.298 66.6357 133.59 64.1885 141.298 60.0481C142.014 59.6645 142.942 58.6526 142.889 58.0111C142.518 53.7054 141.908 49.4261 141.378 45.1337L51.7425 45.1337L51.7359 45.1337ZM158.338 15.0071L34.3179 15.0071C34.3179 17.2161 34.3179 19.2598 34.3179 21.3102C34.3245 27.4149 37.1215 30.1927 43.2655 30.1927C78.6317 30.1927 113.998 30.1927 149.371 30.1927C149.947 30.1927 150.531 30.2125 151.107 30.1795C155.077 29.9678 158.146 27.0114 158.318 23.0761C158.438 20.4503 158.338 17.818 158.338 15.0004L158.338 15.0071ZM34.3378 238.453L158.345 238.453C158.345 236.396 158.345 234.505 158.345 232.62C158.345 225.946 155.707 223.281 149.112 223.281C113.912 223.281 78.7112 223.281 43.5108 223.281C42.7684 223.281 42.0195 223.248 41.2838 223.307C37.5722 223.605 34.5831 226.489 34.371 230.192C34.2185 232.891 34.3378 235.609 34.3378 238.453ZM96.3479 114.64C103.453 106.551 111.864 100.85 121.03 96.0678C127.843 92.5095 132.987 87.053 136.944 80.4985C137.421 79.7115 137.779 78.8516 138.315 77.7603C110.14 86.9736 82.3897 86.9538 54.4401 78.1241C56.2163 81.1269 58.0191 83.9841 60.1334 86.59C63.5997 90.8692 67.8747 94.2622 72.7926 96.749C81.6474 101.22 89.5146 106.981 96.3413 114.64L96.3479 114.64ZM65.0049 161.996C65.0844 162.188 65.1639 162.379 65.2368 162.565C85.9687 157.67 106.701 157.703 127.605 162.181C117.086 154.535 104.699 149.562 96.4076 138.655C88.8187 147.71 79.2812 153.384 69.472 158.722C67.8681 159.595 66.4895 160.891 65.0049 161.996Z" fill="black"/>
</g>
<defs>
<clipPath id="clip0_79_880">
<rect width="193.095" height="253.493" fill="white" transform="translate(193.095 253.493) rotate(180)"/>
</clipPath>
</defs>
</svg>
