<svg width="255" height="194" viewBox="0 0 255 194" fill="none" xmlns="http://www.w3.org/2000/svg">
<g clip-path="url(#clip0_79_884)">
<path d="M0.800613 5.67401C1.01227 5.34924 1.25035 5.03111 1.42892 4.68646C3.17502 1.31951 6.48862 -0.3971 9.76915 0.378358C13.3142 1.21347 15.5961 4.11646 15.6423 7.96724C15.682 11.9174 15.649 15.861 15.649 20.0564C18.3276 20.0564 20.7748 20.0432 23.2286 20.0564C33.1627 20.1227 41.2913 25.7962 44.5785 35.1547C45.1671 36.8249 45.7888 37.0171 47.4026 36.6725C72.6415 31.284 98.641 43.466 110.612 66.3851C114.872 74.544 120.13 81.8081 127.537 87.6804C134.27 82.345 139.548 75.8894 143.398 68.2873C148.398 58.4052 155.349 50.2794 164.774 44.4204C178.128 36.1223 192.553 33.5441 207.97 36.7122C208.373 36.7984 208.777 36.8713 209.187 36.9243C209.339 36.9442 209.504 36.8713 209.809 36.8116C214.538 22.5883 225.371 18.764 239.432 20.242C239.432 15.8478 239.347 11.7451 239.452 7.65574C239.591 2.22754 244.896 -1.28522 249.724 0.829062C252.442 2.01545 253.937 4.19601 254.248 7.1454C254.327 7.88109 254.274 8.63004 254.274 9.37899C254.274 67.7571 254.274 126.135 254.274 184.507C254.274 185.58 254.327 186.681 254.109 187.714C253.355 191.393 250.008 193.925 246.384 193.68C242.634 193.428 239.585 190.399 239.466 186.535C239.34 182.419 239.439 178.296 239.439 173.856C237.071 173.856 234.875 173.856 232.68 173.856C221.634 173.836 213.863 168.328 210.179 157.909C210.073 157.611 209.908 157.332 209.729 156.968C207.328 157.332 204.987 157.783 202.632 158.042C178.035 160.752 155.567 148.802 144.006 126.732C140.044 119.169 135.097 112.462 128.51 107.014C128.258 106.802 127.987 106.616 127.537 106.278C122.147 110.427 117.755 115.497 114.157 121.277C112.808 123.444 111.644 125.731 110.414 127.978C97.8672 150.917 72.4894 162.575 46.9198 157.147C46.4436 157.047 45.9541 157.021 45.2729 156.935C43.4144 163.152 39.823 167.963 34.1614 171.178C28.4536 174.419 22.21 173.842 15.6423 173.869C15.6423 177.938 15.6423 181.948 15.6423 185.958C15.6423 188.722 14.5444 190.942 12.2494 192.473C8.76382 194.8 4.09435 193.713 1.8919 190.107C1.51491 189.491 1.15775 188.874 0.787361 188.251L0.787369 5.67401L0.800613 5.67401ZM209.141 52.4799C202.56 50.2861 195.926 49.9282 189.113 50.7831C185.767 51.2073 183.373 52.3341 182.466 55.8203C182.136 57.0862 181.441 58.2527 180.985 59.4855C174.979 75.7635 173.478 92.5784 175.257 109.731C176.355 120.303 178.796 130.549 183.485 140.16C183.908 141.021 184.742 142.062 185.575 142.274C193.492 144.309 201.349 144.017 209.134 141.432L209.134 52.4799L209.141 52.4799ZM45.9343 141.558C47.859 142.029 49.6778 142.566 51.5363 142.897C53.3949 143.228 55.3129 143.248 57.1714 143.586C59.44 143.997 60.6504 143.049 61.4308 140.988C62.4163 138.37 63.7523 135.878 64.6783 133.24C71.1467 114.735 72.033 95.7929 68.8583 76.5787C67.4363 67.9957 64.9891 59.7042 60.8488 51.996C60.4652 51.2802 59.4533 50.3523 58.8117 50.4054C54.506 50.7765 50.2268 51.3863 45.9343 51.9165L45.9343 141.552L45.9343 141.558ZM15.8077 34.9558L15.8077 158.976C18.0168 158.976 20.0605 158.976 22.1108 158.976C28.2155 158.97 30.9934 156.173 30.9934 150.029C30.9934 114.662 30.9934 79.2961 30.9934 43.9233C30.9934 43.3467 31.0132 42.7634 30.9801 42.1868C30.7685 38.2167 27.812 35.148 23.8767 34.9757C21.251 34.8564 18.6186 34.9558 15.8011 34.9558L15.8077 34.9558ZM239.254 158.956L239.254 34.9492C237.197 34.9492 235.305 34.9492 233.42 34.9492C226.747 34.9492 224.081 37.5871 224.081 44.1818C224.081 79.3823 224.081 114.583 224.081 149.783C224.081 150.526 224.048 151.275 224.108 152.01C224.406 155.722 227.289 158.711 230.993 158.923C233.692 159.076 236.41 158.956 239.254 158.956ZM115.44 96.9461C107.352 89.8411 101.65 81.4303 96.8685 72.264C93.3101 65.4506 87.8536 60.3074 81.2992 56.3505C80.5121 55.8733 79.6523 55.5154 78.561 54.9786C87.7742 83.1535 87.7544 110.904 78.9248 138.854C81.9275 137.078 84.7847 135.275 87.3906 133.161C91.6699 129.694 95.0628 125.419 97.5497 120.501C102.021 111.647 107.781 103.779 115.44 96.9527L115.44 96.9461ZM162.796 128.289C162.988 128.21 163.18 128.13 163.365 128.057C158.471 107.325 158.504 86.5934 162.982 65.6892C155.336 76.2076 150.362 88.595 139.456 96.8865C148.51 104.475 154.185 114.013 159.523 123.822C160.396 125.426 161.692 126.805 162.796 128.289Z" fill="black"/>
</g>
<defs>
<clipPath id="clip0_79_884">
<rect width="193.095" height="253.493" fill="white" transform="translate(254.294 0.199341) rotate(90)"/>
</clipPath>
</defs>
</svg>
