<svg width="194" height="254" viewBox="0 0 194 254" fill="none" xmlns="http://www.w3.org/2000/svg">
<g clip-path="url(#clip0_79_892)">
<path d="M5.4748 253.493C5.15004 253.282 4.8319 253.044 4.48725 252.865C1.1203 251.119 -0.596308 247.805 0.17915 244.525C1.01426 240.98 3.91726 238.698 7.76804 238.652C11.7182 238.612 15.6618 238.645 19.8572 238.645C19.8572 235.966 19.844 233.519 19.8572 231.065C19.9235 221.131 25.5969 213.003 34.9555 209.716C36.6257 209.127 36.8179 208.505 36.4732 206.891C31.0848 181.653 43.2668 155.653 66.1859 143.682C74.3448 139.422 81.6089 134.164 87.4812 126.757C82.1458 120.024 75.6902 114.746 68.0881 110.896C58.206 105.896 50.0802 98.9449 44.2212 89.52C35.9231 76.1664 33.3449 61.7414 36.513 46.3242C36.5992 45.9208 36.6721 45.5173 36.7251 45.1072C36.745 44.9551 36.6721 44.7898 36.6124 44.4855C22.3891 39.7565 18.5648 28.9229 20.0428 14.8616C15.6485 14.8616 11.5459 14.9476 7.45653 14.8417C2.02832 14.7028 -1.48444 9.39844 0.629843 4.57025C1.81623 1.85191 3.99679 0.357153 6.94618 0.0462966C7.68187 -0.0330709 8.43082 0.0198408 9.17977 0.0198408C67.5578 0.0198408 125.936 0.0198408 184.307 0.0198408C185.381 0.0198408 186.481 -0.033071 187.515 0.18519C191.194 0.939182 193.726 4.28585 193.48 7.9103C193.228 11.6604 190.2 14.7095 186.336 14.8285C182.22 14.9542 178.097 14.855 173.656 14.855C173.656 17.2228 173.656 19.4186 173.656 21.6144C173.637 32.6598 168.129 40.4312 157.71 44.1152C157.412 44.221 157.133 44.3863 156.769 44.5649C157.133 46.9658 157.584 49.3071 157.842 51.6617C160.553 76.259 148.603 98.7267 126.532 110.288C118.97 114.25 112.263 119.197 106.815 125.784C106.603 126.036 106.417 126.307 106.079 126.757C110.228 132.147 115.298 136.539 121.078 140.137C123.245 141.486 125.532 142.65 127.778 143.88C150.717 156.427 162.376 181.805 156.948 207.374C156.848 207.85 156.822 208.34 156.736 209.021C162.952 210.88 167.764 214.471 170.979 220.133C174.22 225.84 173.643 232.084 173.67 238.652C177.739 238.652 181.749 238.652 185.759 238.652C188.523 238.652 190.743 239.75 192.274 242.045C194.6 245.53 193.513 250.2 189.908 252.402C189.292 252.779 188.675 253.136 188.052 253.507L5.4748 253.507V253.493ZM52.2807 45.1535C50.0868 51.7344 49.7289 58.3682 50.5839 65.1806C51.0081 68.5273 52.1348 70.9216 55.6211 71.8277C56.887 72.1584 58.0535 72.8528 59.2863 73.3092C75.5643 79.3147 92.3791 80.816 109.532 79.0369C120.103 77.939 130.35 75.4984 139.96 70.8091C140.822 70.3858 141.863 69.5525 142.075 68.7191C144.109 60.8022 143.818 52.9448 141.233 45.1602L52.2807 45.1602V45.1535ZM141.359 208.36C141.83 206.435 142.366 204.616 142.698 202.758C143.029 200.899 143.049 198.981 143.387 197.123C143.798 194.854 142.85 193.644 140.789 192.863C138.171 191.878 135.679 190.542 133.041 189.616C114.536 183.147 95.5936 182.261 76.3795 185.436C67.7964 186.858 59.505 189.305 51.7968 193.445C51.081 193.829 50.1531 194.841 50.2061 195.482C50.5773 199.788 51.1871 204.067 51.7173 208.36L141.352 208.36H141.359ZM34.7566 238.486L158.777 238.486C158.777 236.277 158.777 234.234 158.777 232.183C158.77 226.079 155.973 223.301 149.829 223.301C114.463 223.301 79.0969 223.301 43.7241 223.301C43.1475 223.301 42.5642 223.281 41.9876 223.314C38.0175 223.526 34.9488 226.482 34.7765 230.417C34.6572 233.043 34.7566 235.675 34.7566 238.493V238.486ZM158.757 15.0402L34.75 15.0402C34.75 17.0971 34.75 18.9887 34.75 20.8737C34.75 27.5472 37.3879 30.2126 43.9826 30.2126C79.1831 30.2126 114.384 30.2126 149.584 30.2126C150.326 30.2126 151.075 30.2457 151.811 30.1861C155.523 29.8885 158.512 27.0048 158.724 23.301C158.876 20.6025 158.757 17.8842 158.757 15.0402ZM96.7469 138.854C89.6418 146.942 81.2311 152.644 72.0648 157.426C65.2514 160.984 60.1081 166.44 56.1513 172.995C55.6741 173.782 55.3162 174.642 54.7794 175.733C82.9543 166.52 110.705 166.54 138.655 175.369C136.879 172.367 135.076 169.509 132.961 166.903C129.495 162.624 125.22 159.231 120.302 156.744C111.447 152.273 103.58 146.513 96.7535 138.854H96.7469ZM128.09 91.4976C128.01 91.3058 127.931 91.114 127.858 90.9288C107.126 95.8231 86.3942 95.7901 65.49 91.3124C76.0084 98.9582 88.3958 103.932 96.6872 114.838C104.276 105.784 113.814 100.109 123.623 94.7715C125.227 93.8985 126.605 92.6021 128.09 91.4976Z" fill="black"/>
</g>
<defs>
<clipPath id="clip0_79_892">
<rect width="193.095" height="253.493" fill="white"/>
</clipPath>
</defs>
</svg>
